<?xml version="1.0" encoding="utf-8"?>
<!-- Generator: Adobe Illustrator 23.0.0, SVG Export Plug-In . SVG Version: 6.00 Build 0)  -->
<svg version="1.1" xmlns="http://www.w3.org/2000/svg" xmlns:xlink="http://www.w3.org/1999/xlink" x="0px" y="0px"
	 viewBox="0 0 144 144" style="enable-background:new 0 0 144 144;" xml:space="preserve">
<style type="text/css">
	.st0{fill:#EA8D2F;}
	.st1{fill:#894E44;}
	.st2{fill:#542E33;}
	.st3{fill:#923F31;}
	.st4{fill:#D8BF51;}
	.st5{fill:#F9EE41;}
	.st6{fill:#4B683D;}
	.st7{fill:#639640;}
	.st8{fill:#A15846;}
	.st9{fill:#B06345;}
	.st10{fill:#723332;}
	.st11{fill:#F9A61F;}
</style>
<g id="Sandwich_x5F_bottom">
	<g id="Bread_x5F_Bottom">
		<polyline class="st0" points="126.2,87.17 73.18,116.32 18.54,92.74 		"/>
		<path class="st0" d="M126.2,87.17v10.61c0,2.04-1.13,3.91-2.93,4.87l-47.61,25.32c-1.58,0.99-3.43,1.1-5.08,0.31l-49.11-20.96
			c-1.78-0.76-2.94-2.51-2.94-4.45V92.74"/>
		<path class="st0" d="M18.54,92.74"/>
	</g>
	<g id="Ham">
		<path class="st1" d="M73.4,128.49l-0.21-11.73L18.54,94.77v8.6c0,0.26,0.04,0.51,0.12,0.75l0,0c0.49,1.53,1.61,2.77,3.09,3.41
			l50.57,21.68C72.83,129.44,73.41,129.05,73.4,128.49z"/>
		<g>
			<path class="st2" d="M72.82,53.46c-1.19-0.54-2.58-0.42-3.66,0.33L20.05,88.13c-0.99,0.69-1.58,1.82-1.58,3.03v2.99
				c0,1.5,0.91,2.85,2.3,3.42l43.71,17.9c2.83,1.16,5.86,1.65,8.85,1.48V53.7L72.82,53.46z"/>
			<path class="st3" d="M124.06,76.8L73.42,53.7v63.26c2.79-0.16,5.55-0.89,8.09-2.19l42.7-21.85c1.24-0.63,2.01-1.9,2.01-3.29
				v-9.44C126.22,78.72,125.37,77.41,124.06,76.8z"/>
		</g>
	</g>
	<g id="Cheese">
		<g id="Shade">
			<g>
				<path class="st4" d="M27.61,93.11c-0.27,3.31,6.7,18.68,6.7,18.68s11.45-4.58,18.85-6.7c6.57-1.88,8.97-14.55,9.43-17.39
					l-3.05-12.52C47.53,80.97,27.8,90.81,27.61,93.11z"/>
				<path class="st5" d="M116.08,83.3L76.82,69.02c0,0-3.77,1.75-9.03,4.28l3.05,12.52c0.06-0.36,0.09-0.56,0.09-0.56
					s10.75,17.42,22.03,16.89c11.28-0.53,19.73,4.76,19.73,4.76C120.61,92.99,116.08,83.3,116.08,83.3z"/>
			</g>
		</g>
	</g>
	<g id="Lettuce">
		<g id="bottom">
			<path class="st6" d="M20.99,90.92l-1.57,1.36c0,0,3.7-0.53,6.7,3.35l3-1.59l0.7,2.82l2.64-1.23l5.29-1.74l-2.47,4.2
				c0,0,3.35-0.53,2.47,3l7.35-3.7c0,0,3.22,1.76,3.93,6.87l2.47-0.88v2.29l2.11-1.76l1.23,3l3.52-4.41c0,0,1.94-1.41,4.14,4.41
				c0,0,5.02-7.05,7.31,4.41c0,0,5.29-7.05,8.63-1.59c0,0,2.64-2.82,1.23-5.64c0,0,1.94-1.59,4.76,1.94c0,0,2.11-9.51,7.93-1.59
				c0,0,2.11-7.7,6.7-3.32c0,0-4.05-13.94,11.98-4.61c0,0-1.79-18.68,17.96-13.48c0,0-2.12-2.55,1.77-3.26l-6.79-4.58L73.42,102.5
				L26.99,86.35L20.99,90.92"/>
		</g>
		<path id="top" class="st7" d="M16.77,81.71L11.14,84c0,0,0.7,3.35,2.82,4.41l5.46-1.23l-2,2.49c0,0,2.35-1.08,4.11,2.09l3.52-2.09
			v2.09c0,0,2.64,0,2.82,1.94c0,0,6.52-5.81,5.29,3c0,0,4.23-3.17,13.04,5.81c0,0,0.25-3.52-1.11-5.11c0,0,7.45-2.11,10.62,6.34
			c0,0,5.99-5.99,5.64,2.82c0,0,7.92-10.04,12.06,3.17c0,0,3.79-13.57,14.01-4.93c0,0,0.35-16.39,12.86-6.52
			c0,0-2.11-11.1,3.88-6.34c0,0-1.94-11.27,11.98-2.2c0,0,0.53-2.2,4.23-2.56c0,0-6.87-3.52,0-8.63l10.4-2.11V73.6l-3.53-0.18
			L73.42,102.5L16.77,81.71z"/>
	</g>
	<g id="Bread_x5F_Top">
		<path class="st8" d="M71.13,51.56L22.48,69.81c-1.11,0.4-4.94,1.75-3.82,2.11l54.11,17.51c0.29,0.09,0.61,0.08,0.89-0.05
			l52.35-24.9c1.09-0.49-0.65-2.09-1.82-2.33L73.57,51.29C73.35,51.24,71.34,51.48,71.13,51.56z"/>
		<path class="st0" d="M73.42,89.55v12.23c0,0.32,0.35,0.53,0.63,0.38l50.97-27.47c0.69-0.37,1.12-1.09,1.13-1.87
			c0.02-1.63,0.06-4.72,0.11-8.6L73.42,89.55z"/>
		<path class="st1" d="M18.76,83.03l53.79,19.17c0.43,0.15,0.87-0.17,0.87-0.62V89.55L18.46,71.77
			C18.46,71.77,17.29,76.24,18.76,83.03z"/>
	</g>
</g>
<g id="Sandwich_x5F_top">
	<g id="Bread_x5F_Bottom_copy">
		<polyline class="st0" points="126.2,39.73 73.18,68.87 18.54,45.3 		"/>
		<path class="st0" d="M126.2,39.73v10.61c0,2.04-1.13,3.91-2.93,4.87L75.67,80.53c-1.58,0.99-3.43,1.1-5.08,0.31L21.48,59.88
			c-1.78-0.76-2.94-2.51-2.94-4.45V45.3"/>
		<path class="st0" d="M18.54,45.3"/>
	</g>
	<g id="Ham_copy">
		<path class="st9" d="M18.69,57.25c0.49,1.53,1.57,4.14,3.05,4.77l50.57,19.75c0.52,0.22,1.09-0.16,1.08-0.73l-0.21-11.73
			L18.54,47.33"/>
		<g>
			<path class="st10" d="M72.82,6.24c-1.19-0.54-2.58-0.42-3.66,0.33L20.05,40.69c-0.99,0.69-1.58,1.82-1.58,3.03v2.99
				c0,1.5,0.91,2.85,2.3,3.42l43.71,17.9c2.83,1.16,5.86,1.65,8.85,1.48V6.48L72.82,6.24z"/>
			<path class="st3" d="M124.06,29.36L73.42,6.48v63.04c2.79-0.16,5.55-0.89,8.09-2.19l42.7-21.85c1.24-0.63,2.01-1.9,2.01-3.29
				v-9.44C126.22,31.28,125.37,29.96,124.06,29.36z"/>
		</g>
	</g>
	<g id="Cheese_copy">
		<g id="Shade_copy">
			<g>
				<path class="st4" d="M27.61,45.66c-0.27,3.31,6.7,18.68,6.7,18.68s11.45-4.58,18.85-6.7c6.57-1.88,8.97-14.55,9.43-17.39
					l-3.05-12.52C47.53,33.52,27.8,43.36,27.61,45.66z"/>
				<path class="st5" d="M116.08,35.86L76.82,21.58c0,0-3.77,1.75-9.03,4.28l3.05,12.52c0.06-0.36,0.09-0.56,0.09-0.56
					s10.75,17.42,22.03,16.89c11.28-0.53,19.73,4.76,19.73,4.76C120.61,45.55,116.08,35.86,116.08,35.86z"/>
			</g>
		</g>
	</g>
	<g id="Lettuce_copy">
		<g id="bottom_copy">
			<path class="st6" d="M20.99,43.48l-1.57,1.36c0,0,3.7-0.53,6.7,3.35l3-1.59l0.7,2.82l2.64-1.23l5.29-1.74l-2.47,4.2
				c0,0,3.35-0.53,2.47,3l7.35-3.7c0,0,3.22,1.76,3.93,6.87l2.47-0.88v2.29l2.11-1.76l1.23,3l3.52-4.41c0,0,1.94-1.41,4.14,4.41
				c0,0,5.02-7.05,7.31,4.41c0,0,5.29-7.05,8.63-1.59c0,0,2.64-2.82,1.23-5.64c0,0,1.94-1.59,4.76,1.94c0,0,2.11-9.51,7.93-1.59
				c0,0,2.11-7.7,6.7-3.32c0,0-4.05-13.94,11.98-4.61c0,0-1.79-18.68,17.96-13.48c0,0-2.12-2.55,1.77-3.26l-6.79-4.58L73.42,55.06
				L26.99,38.91L20.99,43.48"/>
		</g>
		<path id="top_1_" class="st7" d="M16.77,34.26l-5.63,2.51c0,0,0.7,3.13,2.82,4.18l5.46-1.23l-2,2.49c0,0,2.35-1.08,4.11,2.09
			l3.52-2.09v2.09c0,0,2.64,0,2.82,1.94c0,0,6.52-5.81,5.29,3c0,0,4.23-3.17,13.04,5.81c0,0,0.25-3.52-1.11-5.11
			c0,0,7.45-2.11,10.62,6.34c0,0,5.99-5.99,5.64,2.82c0,0,7.92-10.04,12.06,3.17c0,0,3.79-13.57,14.01-4.93
			c0,0,0.35-16.39,12.86-6.52c0,0-2.11-11.1,3.88-6.34c0,0-1.94-11.27,11.98-2.2c0,0,0.53-2.2,4.23-2.56c0,0-6.87-3.52,0-8.63
			l10.4-2.11v-2.82l-3.53-0.18L73.42,55.06L16.77,34.26z"/>
	</g>
	<g id="Bread_x5F_Top_copy">
		<path class="st11" d="M71.13,4.34L22.48,22.37c-1.11,0.4-5.53,1.75-4.42,2.11l54.7,17.51c0.29,0.09,0.61,0.08,0.89-0.05
			l52.35-24.9c1.09-0.49-0.65-2.09-1.82-2.33L73.57,4.07C73.35,4.02,71.34,4.26,71.13,4.34z"/>
		<path class="st0" d="M73.42,42.11v12.23c0,0.32,0.35,0.53,0.63,0.38l50.97-27.47c0.69-0.37,1.12-1.09,1.13-1.87
			c0.02-1.63,0.06-4.72,0.11-8.6L73.42,42.11z"/>
		<path class="st9" d="M18.76,35.59l53.79,19.17c0.43,0.15,0.87-0.17,0.87-0.62V42.11L17.87,24.33
			C17.87,24.33,17.29,28.8,18.76,35.59z"/>
	</g>
</g>
<g id="Title">
	<g>
		<path class="st9" d="M31.73,116c-0.13,0.08-0.24,0.14-0.35,0.16c-0.11,0.02-0.22,0.01-0.35-0.05c-0.11-0.05-0.22-0.14-0.32-0.27
			c-0.1-0.13-0.21-0.27-0.34-0.43c-0.13-0.16-0.28-0.32-0.46-0.48c-0.18-0.16-0.41-0.3-0.67-0.42c-0.47-0.2-0.86-0.25-1.17-0.16
			c-0.31,0.1-0.54,0.32-0.69,0.66c-0.09,0.22-0.1,0.42-0.03,0.63c0.07,0.2,0.2,0.4,0.38,0.6c0.18,0.2,0.39,0.4,0.64,0.62
			c0.25,0.21,0.5,0.43,0.75,0.67s0.49,0.49,0.72,0.75c0.22,0.27,0.4,0.56,0.53,0.88c0.13,0.32,0.19,0.66,0.19,1.04
			c0,0.38-0.1,0.79-0.29,1.23c-0.22,0.49-0.5,0.92-0.86,1.28c-0.36,0.36-0.77,0.62-1.24,0.8c-0.47,0.18-0.98,0.26-1.54,0.23
			c-0.56-0.02-1.14-0.17-1.75-0.43c-0.33-0.15-0.66-0.33-0.97-0.55c-0.32-0.22-0.61-0.46-0.88-0.73c-0.27-0.27-0.51-0.55-0.72-0.84
			s-0.37-0.59-0.49-0.9l1.24-0.84c0.09-0.07,0.2-0.1,0.32-0.11c0.12-0.01,0.24,0.01,0.35,0.06c0.15,0.06,0.28,0.17,0.38,0.33
			s0.23,0.33,0.37,0.53c0.14,0.19,0.31,0.39,0.52,0.59c0.21,0.2,0.47,0.37,0.81,0.52c0.45,0.2,0.84,0.25,1.18,0.16
			c0.34-0.09,0.6-0.35,0.79-0.78c0.11-0.25,0.13-0.48,0.06-0.7c-0.07-0.22-0.19-0.43-0.37-0.63c-0.18-0.2-0.39-0.4-0.64-0.6
			c-0.25-0.2-0.5-0.42-0.76-0.64c-0.26-0.23-0.5-0.47-0.72-0.73c-0.22-0.26-0.4-0.56-0.52-0.88c-0.12-0.33-0.18-0.69-0.17-1.09
			s0.13-0.85,0.34-1.35c0.17-0.4,0.43-0.76,0.75-1.07c0.33-0.31,0.71-0.55,1.16-0.71c0.44-0.16,0.93-0.23,1.47-0.21
			c0.53,0.02,1.09,0.16,1.68,0.41c0.33,0.14,0.64,0.31,0.93,0.5c0.29,0.19,0.55,0.39,0.79,0.61c0.24,0.22,0.44,0.46,0.63,0.7
			c0.18,0.25,0.33,0.5,0.44,0.76L31.73,116z"/>
		<path class="st9" d="M33.01,126.85c-0.36-0.16-0.66-0.35-0.89-0.58c-0.23-0.23-0.4-0.48-0.5-0.75c-0.1-0.28-0.15-0.57-0.12-0.89
			c0.02-0.32,0.11-0.64,0.25-0.98l1.72-3.94l-0.65-0.28c-0.12-0.05-0.2-0.13-0.25-0.24c-0.05-0.11-0.04-0.24,0.02-0.39l0.39-0.89
			l1.31,0.29l1.26-1.67c0.16-0.21,0.38-0.25,0.65-0.13l1.19,0.52l-0.97,2.23l1.85,0.81l-0.68,1.56l-1.85-0.81l-1.65,3.79
			c-0.08,0.18-0.1,0.34-0.06,0.49s0.13,0.26,0.3,0.33c0.08,0.04,0.16,0.06,0.22,0.07c0.06,0.01,0.12,0.01,0.17,0
			c0.05,0,0.1-0.01,0.14-0.01c0.05,0,0.09,0.01,0.14,0.03c0.07,0.03,0.12,0.07,0.15,0.12c0.03,0.05,0.05,0.12,0.06,0.21l0.22,1.38
			c-0.39,0.09-0.79,0.11-1.21,0.06C33.8,127.13,33.4,127.02,33.01,126.85z"/>
		<path class="st9" d="M41.89,130.58c-0.22-0.09-0.36-0.19-0.45-0.3c-0.08-0.11-0.12-0.27-0.12-0.49l0.02-0.49
			c-0.26,0.08-0.51,0.14-0.74,0.19c-0.23,0.05-0.46,0.07-0.68,0.07c-0.23,0-0.45-0.02-0.69-0.07c-0.23-0.05-0.48-0.13-0.74-0.25
			c-0.35-0.15-0.64-0.34-0.89-0.55s-0.43-0.45-0.55-0.72c-0.12-0.26-0.18-0.55-0.17-0.86c0.01-0.31,0.09-0.64,0.24-0.98
			c0.12-0.27,0.31-0.52,0.57-0.74c0.26-0.23,0.61-0.38,1.05-0.47c0.44-0.09,0.98-0.08,1.62,0.01c0.64,0.09,1.4,0.33,2.27,0.71
			l0.14-0.33c0.2-0.45,0.25-0.82,0.15-1.1c-0.1-0.28-0.31-0.49-0.65-0.64c-0.27-0.12-0.5-0.18-0.7-0.2c-0.2-0.02-0.38-0.02-0.55,0
			c-0.17,0.01-0.33,0.02-0.48,0.03c-0.15,0-0.32-0.03-0.49-0.11c-0.16-0.07-0.27-0.16-0.35-0.29c-0.08-0.12-0.12-0.26-0.14-0.4
			l-0.1-0.89c0.64-0.21,1.28-0.29,1.93-0.24c0.65,0.05,1.29,0.21,1.94,0.49c0.46,0.2,0.84,0.46,1.15,0.77
			c0.31,0.31,0.53,0.66,0.67,1.03c0.14,0.38,0.2,0.78,0.18,1.21c-0.02,0.43-0.13,0.86-0.32,1.29l-2.07,4.76L41.89,130.58z
			 M39.88,128.05c0.29,0.13,0.57,0.19,0.84,0.18c0.26-0.01,0.56-0.08,0.89-0.21l0.45-1.04c-0.46-0.2-0.84-0.33-1.16-0.4
			c-0.32-0.07-0.59-0.1-0.8-0.08c-0.21,0.01-0.37,0.06-0.49,0.15c-0.12,0.08-0.2,0.19-0.26,0.33c-0.11,0.26-0.12,0.48-0.03,0.65
			C39.42,127.79,39.61,127.93,39.88,128.05z"/>
		<path class="st9" d="M52.95,128.48c-0.11,0.05-0.2,0.09-0.28,0.11c-0.09,0.02-0.19,0.01-0.3-0.04c-0.11-0.05-0.2-0.12-0.27-0.21
			c-0.07-0.09-0.14-0.2-0.23-0.31c-0.08-0.12-0.19-0.23-0.32-0.35c-0.13-0.12-0.31-0.23-0.53-0.33c-0.28-0.12-0.54-0.18-0.79-0.16
			c-0.25,0.01-0.48,0.09-0.7,0.22c-0.22,0.13-0.42,0.33-0.6,0.57c-0.18,0.25-0.35,0.55-0.5,0.9c-0.32,0.73-0.42,1.35-0.31,1.87
			c0.11,0.51,0.41,0.88,0.91,1.1c0.26,0.12,0.49,0.17,0.67,0.17c0.18,0,0.35-0.02,0.49-0.05c0.14-0.04,0.27-0.07,0.39-0.1
			c0.12-0.03,0.25-0.01,0.39,0.05c0.18,0.08,0.29,0.21,0.33,0.38l0.31,1.1c-0.35,0.17-0.7,0.28-1.03,0.33
			c-0.33,0.05-0.66,0.07-0.97,0.05c-0.31-0.02-0.62-0.08-0.91-0.16c-0.29-0.08-0.56-0.18-0.82-0.29c-0.47-0.2-0.87-0.48-1.22-0.85
			c-0.35-0.36-0.61-0.78-0.78-1.25c-0.18-0.48-0.25-1-0.23-1.57c0.02-0.57,0.17-1.17,0.45-1.8c0.24-0.55,0.54-1.03,0.92-1.43
			c0.37-0.41,0.79-0.71,1.27-0.92c0.47-0.21,0.99-0.31,1.55-0.31c0.56,0,1.15,0.14,1.77,0.41c0.6,0.26,1.08,0.58,1.45,0.97
			c0.37,0.39,0.65,0.84,0.86,1.37L52.95,128.48z"/>
		<path class="st9" d="M59.51,125.15l-2.68,6.17l0.34,0.15c0.14,0.06,0.26,0.09,0.35,0.08s0.2-0.05,0.31-0.12l2.38-1.52
			c0.14-0.09,0.28-0.14,0.42-0.15c0.14-0.01,0.3,0.03,0.48,0.1l2.09,0.91l-3.15,1.86c-0.15,0.09-0.3,0.16-0.45,0.21
			s-0.31,0.09-0.47,0.11c0.15,0.26,0.24,0.57,0.29,0.91l0.56,4.58l-2.06-0.9c-0.17-0.08-0.31-0.17-0.41-0.28
			c-0.1-0.11-0.16-0.25-0.17-0.43l-0.27-3.33c-0.02-0.15-0.05-0.26-0.11-0.33c-0.06-0.07-0.16-0.13-0.31-0.2l-0.44-0.19l-1.47,3.37
			l-2.28-0.99l4.79-11L59.51,125.15z"/>
	</g>
	<g>
		<path class="st11" d="M84.5,133.85l2.08,3.79l-2.38,1.3l-5.62-10.24l3.33-1.83c0.74-0.41,1.41-0.68,2.02-0.81
			c0.61-0.13,1.15-0.16,1.63-0.07c0.48,0.09,0.9,0.28,1.25,0.57c0.35,0.29,0.65,0.65,0.89,1.09c0.18,0.33,0.31,0.67,0.38,1.01
			c0.07,0.34,0.09,0.69,0.05,1.04c-0.04,0.35-0.13,0.69-0.28,1.03c-0.15,0.34-0.35,0.66-0.62,0.97c0.2-0.01,0.41,0.01,0.61,0.05
			s0.4,0.12,0.6,0.23l4.13,2.37l-2.15,1.18c-0.4,0.22-0.77,0.23-1.1,0.02l-3.33-2.04c-0.15-0.09-0.29-0.14-0.42-0.14
			c-0.13,0-0.29,0.05-0.47,0.15L84.5,133.85z M83.6,132.21l0.96-0.52c0.32-0.18,0.58-0.37,0.76-0.57c0.18-0.21,0.3-0.42,0.37-0.65
			c0.07-0.22,0.08-0.45,0.04-0.68s-0.12-0.46-0.25-0.68c-0.25-0.45-0.58-0.72-1.02-0.81c-0.43-0.09-0.95,0.03-1.57,0.37l-0.96,0.52
			L83.6,132.21z"/>
		<path class="st11" d="M92.26,124.89c0.48-0.26,0.97-0.43,1.45-0.5c0.48-0.07,0.95-0.04,1.39,0.09c0.44,0.13,0.86,0.35,1.25,0.68
			c0.39,0.33,0.73,0.75,1.02,1.28c0.09,0.16,0.16,0.3,0.2,0.41c0.04,0.11,0.06,0.21,0.06,0.29c0,0.08-0.03,0.15-0.08,0.21
			c-0.05,0.06-0.13,0.11-0.22,0.17l-4.2,2.3c0.4,0.57,0.83,0.91,1.28,1.02c0.45,0.11,0.91,0.04,1.39-0.22
			c0.25-0.14,0.45-0.29,0.6-0.45s0.28-0.32,0.38-0.47s0.2-0.29,0.28-0.42c0.09-0.13,0.19-0.23,0.33-0.3c0.17-0.09,0.34-0.1,0.5-0.03
			l1.06,0.43c-0.08,0.38-0.21,0.72-0.38,1.03c-0.17,0.3-0.37,0.58-0.59,0.82c-0.22,0.24-0.46,0.46-0.72,0.64
			c-0.26,0.19-0.51,0.34-0.76,0.48c-0.51,0.28-1.04,0.46-1.57,0.54c-0.54,0.08-1.07,0.05-1.58-0.1s-1-0.41-1.47-0.79
			c-0.46-0.38-0.87-0.89-1.22-1.54c-0.27-0.49-0.44-0.99-0.51-1.52s-0.04-1.04,0.09-1.54s0.37-0.97,0.7-1.4
			C91.25,125.57,91.7,125.2,92.26,124.89z M93.12,126.38c-0.42,0.23-0.68,0.53-0.78,0.89c-0.1,0.37-0.07,0.79,0.1,1.28l2.72-1.49
			c-0.09-0.17-0.21-0.33-0.34-0.47c-0.13-0.14-0.29-0.25-0.46-0.32c-0.17-0.07-0.36-0.11-0.57-0.09
			C93.58,126.18,93.36,126.25,93.12,126.38z"/>
		<path class="st11" d="M102.7,121.56c-0.02,0.12-0.05,0.21-0.08,0.29s-0.11,0.15-0.22,0.21c-0.11,0.06-0.22,0.09-0.33,0.08
			s-0.24-0.01-0.39-0.01c-0.14,0-0.3,0.01-0.48,0.04c-0.17,0.03-0.37,0.1-0.58,0.22c-0.27,0.15-0.47,0.32-0.61,0.53
			c-0.14,0.2-0.22,0.43-0.25,0.69s0,0.53,0.09,0.83s0.22,0.61,0.4,0.95c0.38,0.7,0.81,1.16,1.29,1.39c0.47,0.23,0.95,0.21,1.42-0.05
			c0.25-0.14,0.44-0.28,0.55-0.43c0.11-0.14,0.2-0.28,0.26-0.42c0.06-0.13,0.12-0.26,0.17-0.37c0.05-0.11,0.14-0.21,0.27-0.28
			c0.17-0.09,0.34-0.1,0.5-0.03l1.06,0.43c-0.08,0.38-0.2,0.72-0.36,1.02c-0.16,0.3-0.35,0.56-0.55,0.8
			c-0.21,0.23-0.44,0.44-0.68,0.62c-0.24,0.18-0.49,0.34-0.74,0.47c-0.45,0.25-0.92,0.39-1.42,0.45c-0.5,0.05-0.99,0-1.47-0.15
			c-0.48-0.15-0.94-0.41-1.38-0.78c-0.44-0.37-0.82-0.86-1.15-1.46c-0.29-0.52-0.48-1.06-0.57-1.6c-0.09-0.54-0.08-1.07,0.04-1.57
			c0.12-0.5,0.36-0.98,0.71-1.42c0.35-0.44,0.82-0.82,1.41-1.15c0.57-0.31,1.12-0.5,1.66-0.55c0.53-0.05,1.07,0,1.61,0.16
			L102.7,121.56z"/>
		<path class="st11" d="M106.03,117.34c0.48-0.26,0.97-0.43,1.45-0.5c0.48-0.07,0.95-0.04,1.39,0.09s0.86,0.35,1.25,0.68
			c0.39,0.33,0.73,0.75,1.02,1.28c0.09,0.16,0.16,0.3,0.2,0.41c0.04,0.11,0.06,0.21,0.06,0.29c0,0.08-0.03,0.15-0.08,0.21
			s-0.13,0.11-0.22,0.17l-4.2,2.31c0.4,0.57,0.83,0.91,1.28,1.02c0.45,0.11,0.91,0.04,1.39-0.22c0.25-0.14,0.45-0.29,0.6-0.45
			s0.28-0.32,0.38-0.47c0.1-0.15,0.2-0.29,0.28-0.42s0.19-0.23,0.33-0.3c0.17-0.09,0.34-0.1,0.5-0.03l1.06,0.43
			c-0.08,0.38-0.21,0.72-0.38,1.03c-0.17,0.3-0.37,0.58-0.59,0.82c-0.22,0.24-0.46,0.46-0.72,0.64c-0.25,0.19-0.51,0.35-0.75,0.48
			c-0.51,0.28-1.04,0.46-1.57,0.54c-0.54,0.08-1.07,0.05-1.58-0.1c-0.52-0.14-1-0.41-1.47-0.79c-0.46-0.38-0.87-0.89-1.22-1.54
			c-0.27-0.49-0.44-1-0.51-1.52c-0.07-0.53-0.04-1.04,0.09-1.54c0.13-0.5,0.37-0.97,0.7-1.4
			C105.03,118.02,105.48,117.64,106.03,117.34z M106.9,118.82c-0.42,0.23-0.68,0.53-0.78,0.89c-0.1,0.37-0.07,0.79,0.1,1.28
			l2.72-1.49c-0.09-0.17-0.21-0.33-0.34-0.47c-0.13-0.14-0.29-0.25-0.46-0.32c-0.17-0.07-0.36-0.11-0.57-0.09
			C107.36,118.62,107.13,118.69,106.9,118.82z"/>
		<path class="st11" d="M116.89,121.16c-0.35,0.19-0.68,0.31-1,0.35c-0.32,0.04-0.62,0.02-0.9-0.06c-0.28-0.09-0.54-0.23-0.78-0.45
			c-0.24-0.21-0.45-0.48-0.62-0.8l-2.07-3.77l-0.62,0.34c-0.11,0.06-0.23,0.08-0.35,0.05c-0.12-0.03-0.22-0.11-0.29-0.25l-0.47-0.85
			l1.04-0.86l-0.55-2.01c-0.07-0.26,0.03-0.46,0.29-0.6l1.14-0.63l1.17,2.13l1.77-0.97l0.82,1.49l-1.77,0.97l1.98,3.62
			c0.09,0.17,0.21,0.29,0.35,0.35c0.14,0.07,0.29,0.06,0.45-0.03c0.08-0.04,0.14-0.09,0.19-0.14c0.04-0.04,0.08-0.09,0.11-0.13
			c0.03-0.04,0.06-0.08,0.08-0.12s0.06-0.07,0.11-0.09c0.07-0.04,0.13-0.05,0.18-0.04c0.06,0.01,0.13,0.03,0.2,0.08l1.23,0.67
			c-0.17,0.37-0.39,0.7-0.69,1C117.6,120.7,117.26,120.96,116.89,121.16z"/>
		<path class="st11" d="M122.16,118.27c-0.35,0.19-0.68,0.31-1,0.35c-0.32,0.04-0.62,0.02-0.9-0.06c-0.28-0.09-0.54-0.24-0.78-0.45
			c-0.24-0.21-0.45-0.48-0.62-0.8l-2.07-3.77l-0.62,0.34c-0.11,0.06-0.23,0.08-0.35,0.05c-0.12-0.03-0.22-0.11-0.29-0.25l-0.47-0.85
			l1.04-0.86l-0.55-2.01c-0.07-0.26,0.03-0.46,0.29-0.6l1.14-0.62l1.17,2.13l1.77-0.97l0.82,1.49l-1.77,0.97l1.98,3.62
			c0.09,0.17,0.21,0.29,0.35,0.35c0.14,0.07,0.29,0.05,0.45-0.03c0.08-0.04,0.14-0.09,0.19-0.13c0.04-0.04,0.08-0.09,0.11-0.13
			c0.03-0.04,0.06-0.08,0.08-0.12c0.03-0.04,0.06-0.07,0.11-0.09c0.07-0.04,0.13-0.05,0.18-0.04c0.06,0.01,0.13,0.03,0.2,0.08
			l1.23,0.67c-0.17,0.37-0.4,0.7-0.69,1C122.87,117.81,122.54,118.06,122.16,118.27z"/>
		<path class="st11" d="M123.87,107.55c0.48-0.26,0.97-0.43,1.45-0.5c0.48-0.07,0.95-0.04,1.39,0.09c0.44,0.13,0.86,0.35,1.25,0.68
			c0.39,0.33,0.73,0.75,1.02,1.28c0.09,0.16,0.16,0.3,0.2,0.41s0.06,0.21,0.06,0.29c0,0.08-0.03,0.15-0.08,0.21
			c-0.05,0.06-0.13,0.11-0.22,0.17l-4.2,2.3c0.4,0.57,0.83,0.91,1.28,1.02c0.45,0.11,0.91,0.04,1.39-0.22
			c0.25-0.14,0.45-0.29,0.6-0.45c0.15-0.16,0.28-0.32,0.38-0.47c0.1-0.15,0.2-0.29,0.28-0.42c0.09-0.13,0.2-0.23,0.33-0.3
			c0.17-0.09,0.34-0.1,0.5-0.03l1.06,0.43c-0.08,0.38-0.21,0.72-0.38,1.03c-0.17,0.3-0.37,0.58-0.59,0.82
			c-0.22,0.24-0.46,0.46-0.72,0.64s-0.51,0.34-0.76,0.48c-0.51,0.28-1.04,0.46-1.57,0.54c-0.54,0.08-1.07,0.05-1.58-0.1
			s-1-0.41-1.47-0.79c-0.46-0.38-0.87-0.89-1.22-1.54c-0.27-0.49-0.44-0.99-0.51-1.52c-0.07-0.53-0.04-1.04,0.09-1.54
			c0.13-0.5,0.37-0.97,0.7-1.4C122.87,108.23,123.32,107.86,123.87,107.55z M124.74,109.04c-0.42,0.23-0.68,0.53-0.78,0.89
			c-0.1,0.37-0.07,0.79,0.1,1.28l2.72-1.49c-0.1-0.17-0.21-0.33-0.34-0.47c-0.13-0.14-0.29-0.25-0.46-0.32
			c-0.17-0.07-0.36-0.11-0.57-0.09C125.2,108.84,124.97,108.91,124.74,109.04z"/>
	</g>
</g>
</svg>
