<?xml version="1.0" encoding="utf-8"?>
<!-- Generator: Adobe Illustrator 23.0.0, SVG Export Plug-In . SVG Version: 6.00 Build 0)  -->
<svg version="1.1" xmlns="http://www.w3.org/2000/svg" xmlns:xlink="http://www.w3.org/1999/xlink" x="0px" y="0px"
	 viewBox="0 0 48 48" style="enable-background:new 0 0 48 48;" xml:space="preserve">
<style type="text/css">
	.st0{fill:#EA8D2F;}
	.st1{fill:#894E44;}
	.st2{fill:#542E33;}
	.st3{fill:#923F31;}
	.st4{fill:#D8BF51;}
	.st5{fill:#F9EE41;}
	.st6{fill:#4B683D;}
	.st7{fill:#639640;}
	.st8{fill:#A15846;}
	.st9{fill:#B06345;}
	.st10{fill:#723332;}
	.st11{fill:#F9A61F;}
</style>
<g id="Sandwich_x5F_bottom">
	<g id="Bread_x5F_Bottom">
		<polyline class="st0" points="42.35,29.13 24.5,38.94 6.11,31.01 		"/>
		<path class="st0" d="M42.35,29.13v3.57c0,0.69-0.38,1.32-0.98,1.64l-16.02,8.52c-0.53,0.33-1.15,0.37-1.71,0.1L7.1,35.91
			c-0.6-0.26-0.99-0.84-0.99-1.5v-3.41"/>
		<path class="st0" d="M6.11,31.01"/>
	</g>
	<g id="Ham">
		<path class="st1" d="M24.58,43.04l-0.07-3.95l-18.39-7.4v2.9c0,0.09,0.01,0.17,0.04,0.25v0c0.16,0.52,0.54,0.93,1.04,1.15
			l17.02,7.3C24.39,43.36,24.58,43.23,24.58,43.04z"/>
		<g>
			<path class="st2" d="M24.38,17.79c-0.4-0.18-0.87-0.14-1.23,0.11L6.62,29.45c-0.33,0.23-0.53,0.61-0.53,1.02v1.01
				c0,0.51,0.31,0.96,0.77,1.15l14.71,6.03c0.95,0.39,1.97,0.56,2.98,0.5V17.86L24.38,17.79z"/>
			<path class="st3" d="M41.63,25.64l-17.04-7.78v21.29c0.94-0.05,1.87-0.3,2.72-0.74l14.37-7.36c0.42-0.21,0.68-0.64,0.68-1.11
				v-3.18C42.36,26.29,42.07,25.85,41.63,25.64z"/>
		</g>
	</g>
	<g id="Cheese">
		<g id="Shade">
			<g>
				<path class="st4" d="M9.16,31.13c-0.09,1.11,2.25,6.29,2.25,6.29s3.86-1.54,6.35-2.25c2.21-0.63,3.02-4.9,3.17-5.85l-1.03-4.21
					C15.87,27.04,9.23,30.36,9.16,31.13z"/>
				<path class="st5" d="M38.94,27.83l-13.22-4.81c0,0-1.27,0.59-3.04,1.44l1.03,4.21c0.02-0.12,0.03-0.19,0.03-0.19
					s3.62,5.86,7.41,5.69c3.8-0.18,6.64,1.6,6.64,1.6C40.47,31.09,38.94,27.83,38.94,27.83z"/>
			</g>
		</g>
	</g>
	<g id="Lettuce">
		<g id="bottom">
			<path class="st6" d="M6.93,30.39l-0.53,0.46c0,0,1.25-0.18,2.25,1.13l1.01-0.53l0.24,0.95l0.89-0.42l1.78-0.58l-0.83,1.42
				c0,0,1.13-0.18,0.83,1.01l2.47-1.25c0,0,1.08,0.59,1.32,2.31l0.83-0.3v0.77l0.71-0.59l0.42,1.01l1.19-1.48
				c0,0,0.65-0.47,1.39,1.48c0,0,1.69-2.37,2.46,1.48c0,0,1.78-2.37,2.91-0.53c0,0,0.89-0.95,0.42-1.9c0,0,0.65-0.53,1.6,0.65
				c0,0,0.71-3.2,2.67-0.53c0,0,0.71-2.59,2.25-1.12c0,0-1.36-4.69,4.03-1.55c0,0-0.6-6.29,6.05-4.54c0,0-0.71-0.86,0.6-1.1
				L41.6,25.1l-17.02,9.19L8.95,28.86L6.93,30.39"/>
		</g>
		<path id="top" class="st7" d="M5.52,27.29l-1.9,0.77c0,0,0.24,1.13,0.95,1.48l1.84-0.42l-0.67,0.84c0,0,0.79-0.36,1.38,0.7
			l1.19-0.7v0.7c0,0,0.89,0,0.95,0.65c0,0,2.19-1.96,1.78,1.01c0,0,1.42-1.07,4.39,1.96c0,0,0.08-1.19-0.37-1.72
			c0,0,2.51-0.71,3.58,2.14c0,0,2.02-2.02,1.9,0.95c0,0,2.66-3.38,4.06,1.07c0,0,1.28-4.57,4.72-1.66c0,0,0.12-5.52,4.33-2.19
			c0,0-0.71-3.74,1.3-2.14c0,0-0.65-3.79,4.03-0.74c0,0,0.18-0.74,1.42-0.86c0,0-2.31-1.19,0-2.91l3.5-0.71v-0.95L42.7,24.5
			l-18.12,9.79L5.52,27.29z"/>
	</g>
	<g id="Bread_x5F_Top">
		<path class="st8" d="M23.81,17.14L7.44,23.29C7.07,23.42,5.77,23.88,6.15,24l18.21,5.89c0.1,0.03,0.2,0.03,0.3-0.02l17.62-8.38
			c0.37-0.17-0.22-0.7-0.61-0.78l-17.04-3.66C24.56,17.04,23.88,17.12,23.81,17.14z"/>
		<path class="st0" d="M24.58,29.93v4.12c0,0.11,0.12,0.18,0.21,0.13l17.16-9.25c0.23-0.12,0.38-0.37,0.38-0.63
			c0.01-0.55,0.02-1.59,0.04-2.89L24.58,29.93z"/>
		<path class="st1" d="M6.18,27.74l18.1,6.45c0.14,0.05,0.29-0.06,0.29-0.21v-4.05l-18.5-5.98C6.08,23.95,5.69,25.45,6.18,27.74z"/>
	</g>
</g>
<g id="Sandwich_x5F_top">
	<g id="Bread_x5F_Bottom_copy">
		<polyline class="st0" points="42.35,13.16 24.5,22.97 6.11,15.04 		"/>
		<path class="st0" d="M42.35,13.16v3.57c0,0.69-0.38,1.32-0.98,1.64L25.34,26.9c-0.53,0.33-1.15,0.37-1.71,0.1L7.1,19.95
			c-0.6-0.26-0.99-0.84-0.99-1.5v-3.41"/>
		<path class="st0" d="M6.11,15.04"/>
	</g>
	<g id="Ham_copy">
		<path class="st9" d="M6.16,19.06c0.16,0.52,0.53,1.39,1.03,1.61l17.02,6.65c0.17,0.07,0.37-0.06,0.36-0.24l-0.07-3.95l-18.39-7.4"
			/>
		<g>
			<path class="st10" d="M24.38,1.89c-0.4-0.18-0.87-0.14-1.23,0.11L6.62,13.49c-0.33,0.23-0.53,0.61-0.53,1.02v1.01
				c0,0.51,0.31,0.96,0.77,1.15l14.71,6.03c0.95,0.39,1.97,0.56,2.98,0.5V1.97L24.38,1.89z"/>
			<path class="st3" d="M41.63,9.67l-17.04-7.7v21.22c0.94-0.05,1.87-0.3,2.72-0.74l14.37-7.36c0.42-0.21,0.68-0.64,0.68-1.11v-3.18
				C42.36,10.32,42.07,9.88,41.63,9.67z"/>
		</g>
	</g>
	<g id="Cheese_copy">
		<g id="Shade_copy">
			<g>
				<path class="st4" d="M9.16,15.16c-0.09,1.11,2.25,6.29,2.25,6.29s3.86-1.54,6.35-2.25c2.21-0.63,3.02-4.9,3.17-5.85l-1.03-4.21
					C15.87,11.08,9.23,14.39,9.16,15.16z"/>
				<path class="st5" d="M38.94,11.86L25.73,7.05c0,0-1.27,0.59-3.04,1.44l1.03,4.21c0.02-0.12,0.03-0.19,0.03-0.19
					s3.62,5.86,7.41,5.69c3.8-0.18,6.64,1.6,6.64,1.6C40.47,15.12,38.94,11.86,38.94,11.86z"/>
			</g>
		</g>
	</g>
	<g id="Lettuce_copy">
		<g id="bottom_copy">
			<path class="st6" d="M6.93,14.42l-0.53,0.46c0,0,1.25-0.18,2.25,1.13l1.01-0.53l0.24,0.95l0.89-0.42l1.78-0.58l-0.83,1.42
				c0,0,1.13-0.18,0.83,1.01l2.47-1.25c0,0,1.08,0.59,1.32,2.31l0.83-0.3v0.77l0.71-0.59l0.42,1.01l1.19-1.48
				c0,0,0.65-0.47,1.39,1.48c0,0,1.69-2.37,2.46,1.48c0,0,1.78-2.37,2.91-0.53c0,0,0.89-0.95,0.42-1.9c0,0,0.65-0.53,1.6,0.65
				c0,0,0.71-3.2,2.67-0.53c0,0,0.71-2.59,2.25-1.12c0,0-1.36-4.69,4.03-1.55c0,0-0.6-6.29,6.05-4.54c0,0-0.71-0.86,0.6-1.1
				L41.6,9.13l-17.02,9.19L8.95,12.89L6.93,14.42"/>
		</g>
		<path id="top_1_" class="st7" d="M5.52,11.32l-1.9,0.85c0,0,0.24,1.05,0.95,1.41l1.84-0.42L5.73,14c0,0,0.79-0.36,1.38,0.7L8.3,14
			v0.7c0,0,0.89,0,0.95,0.65c0,0,2.19-1.96,1.78,1.01c0,0,1.42-1.07,4.39,1.96c0,0,0.08-1.19-0.37-1.72c0,0,2.51-0.71,3.58,2.14
			c0,0,2.02-2.02,1.9,0.95c0,0,2.66-3.38,4.06,1.07c0,0,1.28-4.57,4.72-1.66c0,0,0.12-5.52,4.33-2.19c0,0-0.71-3.74,1.3-2.14
			c0,0-0.65-3.79,4.03-0.74c0,0,0.18-0.74,1.42-0.86c0,0-2.31-1.19,0-2.91l3.5-0.71V8.6L42.7,8.54l-18.12,9.79L5.52,11.32z"/>
	</g>
	<g id="Bread_x5F_Top_copy">
		<path class="st11" d="M23.81,1.25L7.44,7.32C7.07,7.45,5.58,7.91,5.95,8.03l18.41,5.89c0.1,0.03,0.2,0.03,0.3-0.02l17.62-8.38
			c0.37-0.17-0.22-0.7-0.61-0.78L24.63,1.16C24.56,1.14,23.88,1.22,23.81,1.25z"/>
		<path class="st0" d="M24.58,13.96v4.12c0,0.11,0.12,0.18,0.21,0.13l17.16-9.25c0.23-0.12,0.38-0.37,0.38-0.63
			c0.01-0.55,0.02-1.59,0.04-2.89L24.58,13.96z"/>
		<path class="st9" d="M6.18,11.77l18.1,6.45c0.14,0.05,0.29-0.06,0.29-0.21v-4.05L5.88,7.98C5.88,7.98,5.69,9.49,6.18,11.77z"/>
	</g>
</g>
<g id="Title">
	<g>
		<path class="st9" d="M10.58,38.87c-0.04,0.03-0.08,0.05-0.12,0.06c-0.04,0.01-0.08,0-0.12-0.02c-0.04-0.02-0.07-0.05-0.11-0.09
			c-0.03-0.04-0.07-0.09-0.11-0.14s-0.09-0.11-0.15-0.16c-0.06-0.05-0.14-0.1-0.23-0.14c-0.16-0.07-0.29-0.08-0.39-0.05
			c-0.11,0.03-0.18,0.11-0.23,0.22c-0.03,0.07-0.04,0.14-0.01,0.21c0.03,0.07,0.07,0.14,0.13,0.2c0.06,0.07,0.13,0.14,0.22,0.21
			c0.08,0.07,0.17,0.15,0.25,0.22c0.08,0.08,0.17,0.17,0.24,0.25c0.08,0.09,0.14,0.19,0.18,0.29c0.04,0.11,0.06,0.22,0.06,0.35
			c0,0.13-0.03,0.26-0.1,0.42C10.02,40.86,9.92,41,9.8,41.13c-0.12,0.12-0.26,0.21-0.42,0.27c-0.16,0.06-0.33,0.09-0.52,0.08
			c-0.19-0.01-0.38-0.06-0.59-0.15c-0.11-0.05-0.22-0.11-0.33-0.18c-0.11-0.07-0.21-0.16-0.3-0.25c-0.09-0.09-0.17-0.18-0.24-0.28
			c-0.07-0.1-0.13-0.2-0.17-0.3l0.42-0.28C7.7,40.01,7.73,40,7.77,39.99c0.04,0,0.08,0,0.12,0.02c0.05,0.02,0.09,0.06,0.13,0.11
			c0.04,0.05,0.08,0.11,0.13,0.18c0.05,0.07,0.1,0.13,0.17,0.2c0.07,0.07,0.16,0.13,0.27,0.17c0.15,0.07,0.28,0.08,0.4,0.05
			c0.11-0.03,0.2-0.12,0.27-0.26c0.04-0.08,0.04-0.16,0.02-0.24c-0.02-0.07-0.07-0.14-0.12-0.21c-0.06-0.07-0.13-0.13-0.22-0.2
			c-0.08-0.07-0.17-0.14-0.26-0.22c-0.09-0.08-0.17-0.16-0.24-0.25c-0.08-0.09-0.13-0.19-0.18-0.3c-0.04-0.11-0.06-0.23-0.06-0.37
			c0-0.13,0.04-0.29,0.11-0.45c0.06-0.14,0.14-0.26,0.25-0.36c0.11-0.11,0.24-0.18,0.39-0.24c0.15-0.05,0.31-0.08,0.49-0.07
			c0.18,0.01,0.37,0.05,0.57,0.14c0.11,0.05,0.21,0.1,0.31,0.17c0.1,0.06,0.19,0.13,0.26,0.21c0.08,0.08,0.15,0.15,0.21,0.24
			c0.06,0.08,0.11,0.17,0.15,0.25L10.58,38.87z"/>
		<path class="st9" d="M11.01,42.52c-0.12-0.05-0.22-0.12-0.3-0.19c-0.08-0.08-0.13-0.16-0.17-0.25c-0.04-0.09-0.05-0.19-0.04-0.3
			c0.01-0.11,0.04-0.22,0.08-0.33l0.58-1.33l-0.22-0.1c-0.04-0.02-0.07-0.04-0.08-0.08c-0.02-0.04-0.01-0.08,0.01-0.13l0.13-0.3
			l0.44,0.1l0.42-0.56c0.06-0.07,0.13-0.09,0.22-0.05l0.4,0.17l-0.33,0.75l0.62,0.27l-0.23,0.52l-0.62-0.27l-0.55,1.27
			c-0.03,0.06-0.03,0.11-0.02,0.17c0.01,0.05,0.05,0.09,0.1,0.11c0.03,0.01,0.05,0.02,0.07,0.02c0.02,0,0.04,0,0.06,0
			c0.02,0,0.03,0,0.05,0c0.02,0,0.03,0,0.05,0.01c0.02,0.01,0.04,0.02,0.05,0.04c0.01,0.02,0.02,0.04,0.02,0.07l0.07,0.46
			c-0.13,0.03-0.27,0.04-0.41,0.02C11.28,42.61,11.14,42.57,11.01,42.52z"/>
		<path class="st9" d="M14,43.77c-0.07-0.03-0.12-0.07-0.15-0.1c-0.03-0.04-0.04-0.09-0.04-0.16l0.01-0.17
			c-0.09,0.03-0.17,0.05-0.25,0.06c-0.08,0.01-0.15,0.02-0.23,0.02s-0.15-0.01-0.23-0.02c-0.08-0.02-0.16-0.04-0.25-0.08
			c-0.12-0.05-0.22-0.11-0.3-0.19s-0.14-0.15-0.19-0.24c-0.04-0.09-0.06-0.19-0.06-0.29c0-0.1,0.03-0.21,0.08-0.33
			c0.04-0.09,0.1-0.17,0.19-0.25c0.09-0.08,0.21-0.13,0.35-0.16c0.15-0.03,0.33-0.03,0.55,0c0.22,0.03,0.47,0.11,0.77,0.24L14.3,42
			c0.07-0.15,0.08-0.27,0.05-0.37c-0.03-0.09-0.11-0.17-0.22-0.22c-0.09-0.04-0.17-0.06-0.24-0.07c-0.07,0-0.13-0.01-0.18,0
			c-0.06,0-0.11,0.01-0.16,0.01c-0.05,0-0.11-0.01-0.17-0.04c-0.05-0.02-0.09-0.06-0.12-0.1c-0.03-0.04-0.04-0.09-0.05-0.13
			l-0.03-0.3c0.21-0.07,0.43-0.1,0.65-0.08c0.22,0.02,0.44,0.07,0.65,0.16c0.15,0.07,0.28,0.15,0.39,0.26
			c0.1,0.1,0.18,0.22,0.22,0.35c0.05,0.13,0.07,0.26,0.06,0.41c-0.01,0.14-0.04,0.29-0.11,0.44l-0.7,1.6L14,43.77z M13.32,42.92
			c0.1,0.04,0.19,0.06,0.28,0.06c0.09,0,0.19-0.03,0.3-0.07l0.15-0.35c-0.15-0.07-0.28-0.11-0.39-0.13
			c-0.11-0.02-0.2-0.03-0.27-0.03c-0.07,0-0.13,0.02-0.16,0.05s-0.07,0.07-0.09,0.11c-0.04,0.09-0.04,0.16-0.01,0.22
			S13.23,42.88,13.32,42.92z"/>
		<path class="st9" d="M17.72,43.06c-0.03,0.02-0.07,0.03-0.1,0.04c-0.03,0.01-0.06,0-0.1-0.01c-0.04-0.02-0.07-0.04-0.09-0.07
			c-0.02-0.03-0.05-0.07-0.08-0.11c-0.03-0.04-0.06-0.08-0.11-0.12c-0.04-0.04-0.1-0.08-0.18-0.11c-0.09-0.04-0.18-0.06-0.27-0.05
			c-0.08,0-0.16,0.03-0.23,0.08c-0.07,0.04-0.14,0.11-0.2,0.19c-0.06,0.08-0.12,0.18-0.17,0.3c-0.11,0.25-0.14,0.46-0.1,0.63
			c0.04,0.17,0.14,0.3,0.31,0.37c0.09,0.04,0.17,0.06,0.23,0.06c0.06,0,0.12,0,0.16-0.02c0.05-0.01,0.09-0.02,0.13-0.03
			c0.04-0.01,0.08,0,0.13,0.02c0.06,0.03,0.1,0.07,0.11,0.13l0.1,0.37c-0.12,0.06-0.23,0.09-0.35,0.11
			c-0.11,0.02-0.22,0.03-0.33,0.02s-0.21-0.03-0.3-0.05c-0.1-0.03-0.19-0.06-0.28-0.1c-0.16-0.07-0.29-0.16-0.41-0.28
			c-0.12-0.12-0.21-0.26-0.26-0.42c-0.06-0.16-0.08-0.34-0.08-0.53c0.01-0.19,0.06-0.39,0.15-0.6c0.08-0.19,0.18-0.35,0.31-0.48
			c0.13-0.14,0.27-0.24,0.43-0.31c0.16-0.07,0.33-0.11,0.52-0.1c0.19,0,0.39,0.05,0.6,0.14c0.2,0.09,0.36,0.2,0.49,0.33
			c0.12,0.13,0.22,0.28,0.29,0.46L17.72,43.06z"/>
		<path class="st9" d="M19.93,41.95l-0.9,2.08l0.11,0.05c0.05,0.02,0.09,0.03,0.12,0.03s0.07-0.02,0.1-0.04l0.8-0.51
			c0.05-0.03,0.09-0.05,0.14-0.05c0.05,0,0.1,0.01,0.16,0.03l0.7,0.31l-1.06,0.63c-0.05,0.03-0.1,0.05-0.15,0.07
			c-0.05,0.02-0.1,0.03-0.16,0.04c0.05,0.09,0.08,0.19,0.1,0.31l0.19,1.54l-0.69-0.3c-0.06-0.03-0.1-0.06-0.14-0.09
			s-0.05-0.08-0.06-0.14l-0.09-1.12c-0.01-0.05-0.02-0.09-0.04-0.11c-0.02-0.02-0.05-0.05-0.1-0.07l-0.15-0.06l-0.49,1.14
			l-0.77-0.33l1.61-3.7L19.93,41.95z"/>
	</g>
	<g>
		<path class="st11" d="M28.32,44.86l0.7,1.28l-0.8,0.44l-1.89-3.45l1.12-0.62c0.25-0.14,0.48-0.23,0.68-0.27
			c0.2-0.05,0.39-0.05,0.55-0.02c0.16,0.03,0.3,0.09,0.42,0.19c0.12,0.1,0.22,0.22,0.3,0.37c0.06,0.11,0.1,0.22,0.13,0.34
			c0.03,0.12,0.03,0.23,0.02,0.35s-0.04,0.23-0.09,0.35c-0.05,0.11-0.12,0.22-0.21,0.33c0.07,0,0.14,0,0.21,0.02
			c0.07,0.01,0.13,0.04,0.2,0.08l1.39,0.8l-0.72,0.4c-0.13,0.07-0.26,0.08-0.37,0.01l-1.12-0.69c-0.05-0.03-0.1-0.05-0.14-0.05
			c-0.04,0-0.1,0.02-0.16,0.05L28.32,44.86z M28.02,44.31l0.32-0.18c0.11-0.06,0.19-0.12,0.25-0.19c0.06-0.07,0.1-0.14,0.13-0.22
			c0.02-0.08,0.03-0.15,0.01-0.23c-0.01-0.08-0.04-0.16-0.08-0.23c-0.08-0.15-0.2-0.24-0.34-0.27c-0.14-0.03-0.32,0.01-0.53,0.12
			l-0.32,0.18L28.02,44.31z"/>
		<path class="st11" d="M30.94,41.84c0.16-0.09,0.33-0.14,0.49-0.17c0.16-0.02,0.32-0.01,0.47,0.03s0.29,0.12,0.42,0.23
			s0.25,0.25,0.34,0.43c0.03,0.05,0.05,0.1,0.07,0.14c0.01,0.04,0.02,0.07,0.02,0.1c0,0.03-0.01,0.05-0.03,0.07
			c-0.02,0.02-0.04,0.04-0.07,0.06l-1.42,0.78c0.14,0.19,0.28,0.31,0.43,0.34c0.15,0.04,0.31,0.01,0.47-0.08
			c0.08-0.05,0.15-0.1,0.2-0.15s0.09-0.11,0.13-0.16s0.07-0.1,0.09-0.14c0.03-0.04,0.07-0.08,0.11-0.1
			c0.06-0.03,0.11-0.04,0.17-0.01l0.36,0.14c-0.03,0.13-0.07,0.24-0.13,0.35c-0.06,0.1-0.12,0.19-0.2,0.28
			c-0.08,0.08-0.16,0.15-0.24,0.22s-0.17,0.12-0.25,0.16c-0.17,0.09-0.35,0.15-0.53,0.18c-0.18,0.03-0.36,0.02-0.53-0.03
			c-0.17-0.05-0.34-0.14-0.49-0.26c-0.16-0.13-0.29-0.3-0.41-0.52c-0.09-0.16-0.15-0.33-0.17-0.51c-0.02-0.18-0.01-0.35,0.03-0.52
			c0.04-0.17,0.12-0.33,0.24-0.47C30.6,42.07,30.75,41.95,30.94,41.84z M31.23,42.34c-0.14,0.08-0.23,0.18-0.26,0.3
			c-0.04,0.12-0.02,0.27,0.03,0.43l0.92-0.5c-0.03-0.06-0.07-0.11-0.12-0.16c-0.04-0.05-0.1-0.08-0.15-0.11s-0.12-0.04-0.19-0.03
			C31.38,42.28,31.31,42.3,31.23,42.34z"/>
		<path class="st11" d="M34.45,40.72c-0.01,0.04-0.02,0.07-0.03,0.1c-0.01,0.03-0.04,0.05-0.07,0.07s-0.07,0.03-0.11,0.03
			c-0.04,0-0.08,0-0.13,0c-0.05,0-0.1,0-0.16,0.01s-0.12,0.03-0.2,0.07c-0.09,0.05-0.16,0.11-0.21,0.18
			c-0.05,0.07-0.08,0.15-0.08,0.23s0,0.18,0.03,0.28s0.07,0.21,0.13,0.32c0.13,0.24,0.27,0.39,0.43,0.47
			c0.16,0.08,0.32,0.07,0.48-0.02c0.08-0.05,0.15-0.09,0.18-0.14s0.07-0.1,0.09-0.14s0.04-0.09,0.06-0.13
			c0.02-0.04,0.05-0.07,0.09-0.09c0.06-0.03,0.11-0.03,0.17-0.01l0.36,0.14c-0.03,0.13-0.07,0.24-0.12,0.34s-0.12,0.19-0.19,0.27
			c-0.07,0.08-0.15,0.15-0.23,0.21c-0.08,0.06-0.16,0.11-0.25,0.16c-0.15,0.08-0.31,0.13-0.48,0.15c-0.17,0.02-0.33,0-0.5-0.05
			c-0.16-0.05-0.32-0.14-0.46-0.26s-0.28-0.29-0.39-0.49c-0.1-0.18-0.16-0.36-0.19-0.54s-0.03-0.36,0.02-0.53
			c0.04-0.17,0.12-0.33,0.24-0.48c0.12-0.15,0.28-0.28,0.48-0.39c0.19-0.11,0.38-0.17,0.56-0.18c0.18-0.02,0.36,0,0.54,0.05
			L34.45,40.72z"/>
		<path class="st11" d="M35.57,39.3c0.16-0.09,0.33-0.14,0.49-0.17c0.16-0.02,0.32-0.01,0.47,0.03s0.29,0.12,0.42,0.23
			c0.13,0.11,0.24,0.25,0.34,0.43c0.03,0.05,0.05,0.1,0.07,0.14c0.01,0.04,0.02,0.07,0.02,0.1c0,0.03-0.01,0.05-0.03,0.07
			c-0.02,0.02-0.04,0.04-0.08,0.06l-1.42,0.78c0.14,0.19,0.28,0.31,0.43,0.34c0.15,0.04,0.31,0.01,0.47-0.08
			c0.08-0.05,0.15-0.1,0.2-0.15c0.05-0.05,0.09-0.11,0.13-0.16s0.07-0.1,0.09-0.14c0.03-0.04,0.07-0.08,0.11-0.1
			c0.06-0.03,0.11-0.04,0.17-0.01l0.36,0.15c-0.03,0.13-0.07,0.24-0.13,0.35c-0.06,0.1-0.13,0.2-0.2,0.28
			c-0.08,0.08-0.16,0.15-0.24,0.21c-0.09,0.06-0.17,0.12-0.25,0.16c-0.17,0.09-0.35,0.15-0.53,0.18c-0.18,0.03-0.36,0.02-0.53-0.03
			c-0.17-0.05-0.34-0.14-0.49-0.26c-0.16-0.13-0.29-0.3-0.41-0.52c-0.09-0.16-0.15-0.33-0.17-0.51c-0.02-0.18-0.01-0.35,0.03-0.52
			c0.04-0.17,0.12-0.33,0.24-0.47C35.24,39.53,35.39,39.4,35.57,39.3z M35.87,39.8c-0.14,0.08-0.23,0.18-0.26,0.3
			s-0.02,0.27,0.03,0.43l0.92-0.5c-0.03-0.06-0.07-0.11-0.12-0.16c-0.04-0.05-0.1-0.08-0.15-0.11c-0.06-0.02-0.12-0.04-0.19-0.03
			C36.02,39.73,35.95,39.76,35.87,39.8z"/>
		<path class="st11" d="M39.23,40.59c-0.12,0.06-0.23,0.1-0.34,0.12c-0.11,0.01-0.21,0.01-0.3-0.02c-0.09-0.03-0.18-0.08-0.26-0.15
			c-0.08-0.07-0.15-0.16-0.21-0.27L37.42,39l-0.21,0.11c-0.04,0.02-0.08,0.03-0.12,0.02c-0.04-0.01-0.07-0.04-0.1-0.08l-0.16-0.29
			l0.35-0.29L37,37.79c-0.02-0.09,0.01-0.15,0.1-0.2l0.38-0.21l0.39,0.72l0.6-0.33l0.28,0.5l-0.6,0.33l0.67,1.22
			c0.03,0.06,0.07,0.1,0.12,0.12c0.05,0.02,0.1,0.02,0.15-0.01c0.03-0.01,0.05-0.03,0.06-0.04c0.01-0.02,0.03-0.03,0.04-0.05
			c0.01-0.01,0.02-0.03,0.03-0.04c0.01-0.01,0.02-0.02,0.04-0.03c0.02-0.01,0.04-0.02,0.06-0.01s0.04,0.01,0.07,0.02L39.8,40
			c-0.06,0.12-0.13,0.23-0.23,0.33C39.47,40.43,39.35,40.52,39.23,40.59z"/>
		<path class="st11" d="M41,39.61c-0.12,0.06-0.23,0.1-0.34,0.12c-0.11,0.01-0.21,0.01-0.3-0.02s-0.18-0.08-0.26-0.15
			c-0.08-0.07-0.15-0.16-0.21-0.27l-0.7-1.27l-0.21,0.11c-0.04,0.02-0.08,0.03-0.12,0.02s-0.07-0.04-0.1-0.09l-0.16-0.29l0.35-0.29
			l-0.18-0.68c-0.02-0.09,0.01-0.15,0.1-0.2l0.38-0.21l0.39,0.72l0.6-0.33l0.28,0.5l-0.6,0.33l0.67,1.22
			c0.03,0.06,0.07,0.1,0.12,0.12c0.05,0.02,0.1,0.02,0.15-0.01c0.03-0.01,0.05-0.03,0.06-0.04c0.01-0.02,0.03-0.03,0.04-0.05
			s0.02-0.03,0.03-0.04c0.01-0.01,0.02-0.02,0.04-0.03c0.02-0.01,0.04-0.02,0.06-0.01c0.02,0,0.04,0.01,0.07,0.03l0.41,0.23
			c-0.06,0.12-0.13,0.23-0.23,0.33C41.24,39.46,41.13,39.54,41,39.61z"/>
		<path class="st11" d="M41.58,36.01c0.16-0.09,0.33-0.14,0.49-0.17c0.16-0.02,0.32-0.01,0.47,0.03c0.15,0.04,0.29,0.12,0.42,0.23
			c0.13,0.11,0.24,0.25,0.34,0.43c0.03,0.05,0.05,0.1,0.07,0.14c0.01,0.04,0.02,0.07,0.02,0.1s-0.01,0.05-0.03,0.07
			c-0.02,0.02-0.04,0.04-0.08,0.06l-1.42,0.78c0.14,0.19,0.28,0.31,0.43,0.34c0.15,0.04,0.31,0.01,0.47-0.08
			c0.09-0.05,0.15-0.1,0.2-0.15c0.05-0.05,0.09-0.11,0.13-0.16c0.04-0.05,0.07-0.1,0.1-0.14c0.03-0.04,0.06-0.08,0.11-0.1
			c0.06-0.03,0.11-0.03,0.17-0.01l0.36,0.14c-0.03,0.13-0.07,0.24-0.13,0.35c-0.06,0.1-0.12,0.19-0.2,0.28
			c-0.08,0.08-0.16,0.15-0.24,0.22s-0.17,0.12-0.25,0.16c-0.17,0.09-0.35,0.15-0.53,0.18c-0.18,0.03-0.36,0.01-0.53-0.03
			c-0.17-0.05-0.34-0.14-0.49-0.26c-0.16-0.13-0.29-0.3-0.41-0.52c-0.09-0.16-0.15-0.33-0.17-0.51c-0.03-0.18-0.02-0.35,0.03-0.52
			c0.04-0.17,0.12-0.33,0.24-0.47C41.24,36.23,41.39,36.11,41.58,36.01z M41.87,36.5c-0.14,0.08-0.23,0.18-0.26,0.3
			c-0.04,0.12-0.03,0.27,0.03,0.43l0.92-0.5c-0.03-0.06-0.07-0.11-0.12-0.16c-0.04-0.05-0.1-0.08-0.15-0.11s-0.12-0.04-0.19-0.03
			C42.02,36.44,41.95,36.46,41.87,36.5z"/>
	</g>
</g>
</svg>
