<?xml version="1.0" encoding="utf-8"?>
<!-- Generator: Adobe Illustrator 23.0.0, SVG Export Plug-In . SVG Version: 6.00 Build 0)  -->
<svg version="1.1" xmlns="http://www.w3.org/2000/svg" xmlns:xlink="http://www.w3.org/1999/xlink" x="0px" y="0px"
	 viewBox="0 0 96 96" style="enable-background:new 0 0 96 96;" xml:space="preserve">
<style type="text/css">
	.st0{fill:#EA8D2F;}
	.st1{fill:#894E44;}
	.st2{fill:#542E33;}
	.st3{fill:#923F31;}
	.st4{fill:#D8BF51;}
	.st5{fill:#F9EE41;}
	.st6{fill:#4B683D;}
	.st7{fill:#639640;}
	.st8{fill:#A15846;}
	.st9{fill:#B06345;}
	.st10{fill:#723332;}
	.st11{fill:#F9A61F;}
</style>
<g id="Sandwich_x5F_bottom">
	<g id="Bread_x5F_Bottom">
		<polyline class="st0" points="85.17,58.08 49.64,77.61 13.01,61.81 		"/>
		<path class="st0" d="M85.17,58.08v7.11c0,1.37-0.75,2.62-1.96,3.26L51.3,85.42c-1.06,0.66-2.3,0.74-3.4,0.21L14.98,71.58
			c-1.19-0.51-1.97-1.68-1.97-2.98v-6.79"/>
		<path class="st0" d="M13.01,61.81"/>
	</g>
	<g id="Ham">
		<path class="st1" d="M49.78,85.77l-0.14-7.86L13.01,63.17v5.77c0,0.17,0.03,0.34,0.08,0.51h0c0.33,1.03,1.08,1.86,2.07,2.28
			l33.89,14.53C49.4,86.41,49.79,86.15,49.78,85.77z"/>
		<g>
			<path class="st2" d="M49.39,35.49c-0.8-0.36-1.73-0.28-2.45,0.22L14.03,58.72c-0.66,0.46-1.06,1.22-1.06,2.03v2.01
				c0,1.01,0.61,1.91,1.54,2.29l29.3,12c1.9,0.78,3.93,1.11,5.93,0.99v-42.4L49.39,35.49z"/>
			<path class="st3" d="M83.73,51.13L49.8,35.64v42.4c1.87-0.11,3.72-0.6,5.42-1.47l28.62-14.65c0.83-0.42,1.35-1.28,1.35-2.21
				v-6.33C85.18,52.41,84.62,51.53,83.73,51.13z"/>
		</g>
	</g>
	<g id="Cheese">
		<g id="Shade">
			<g>
				<path class="st4" d="M19.09,62.06c-0.18,2.22,4.49,12.52,4.49,12.52s7.68-3.07,12.64-4.49c4.4-1.26,6.01-9.75,6.32-11.65
					l-2.04-8.39C32.45,53.92,19.22,60.51,19.09,62.06z"/>
				<path class="st5" d="M78.39,55.49l-26.31-9.57c0,0-2.53,1.17-6.05,2.87l2.04,8.39c0.04-0.24,0.06-0.38,0.06-0.38
					s7.2,11.68,14.76,11.32c7.56-0.35,13.23,3.19,13.23,3.19C81.42,61.98,78.39,55.49,78.39,55.49z"/>
			</g>
		</g>
	</g>
	<g id="Lettuce">
		<g id="bottom">
			<path class="st6" d="M14.66,60.59L13.6,61.5c0,0,2.48-0.35,4.49,2.24l2.01-1.06l0.47,1.89l1.77-0.83l3.54-1.16l-1.65,2.82
				c0,0,2.24-0.35,1.65,2.01l4.93-2.48c0,0,2.16,1.18,2.63,4.61l1.65-0.59v1.54l1.42-1.18l0.83,2.01l2.36-2.95
				c0,0,1.3-0.94,2.78,2.95c0,0,3.36-4.72,4.9,2.95c0,0,3.54-4.72,5.79-1.06c0,0,1.77-1.89,0.83-3.78c0,0,1.3-1.06,3.19,1.3
				c0,0,1.42-6.38,5.31-1.06c0,0,1.42-5.16,4.49-2.23c0,0-2.72-9.35,8.03-3.09c0,0-1.2-12.52,12.04-9.03c0,0-1.42-1.71,1.19-2.18
				l-4.55-3.07L49.8,68.35L18.68,57.53L14.66,60.59"/>
		</g>
		<path id="top" class="st7" d="M11.83,54.42l-3.78,1.54c0,0,0.47,2.24,1.89,2.95l3.66-0.83l-1.34,1.67c0,0,1.57-0.72,2.75,1.4
			l2.36-1.4v1.4c0,0,1.77,0,1.89,1.3c0,0,4.37-3.9,3.54,2.01c0,0,2.83-2.13,8.74,3.9c0,0,0.17-2.36-0.74-3.42
			c0,0,4.99-1.42,7.12,4.25c0,0,4.02-4.02,3.78,1.89c0,0,5.31-6.73,8.08,2.13c0,0,2.54-9.09,9.39-3.31c0,0,0.24-10.98,8.62-4.37
			c0,0-1.42-7.44,2.6-4.25c0,0-1.3-7.55,8.03-1.47c0,0,0.35-1.48,2.83-1.71c0,0-4.6-2.36,0-5.79l6.97-1.42v-1.89l-2.36-0.12
			L49.8,68.35L11.83,54.42z"/>
	</g>
	<g id="Bread_x5F_Top">
		<path class="st8" d="M48.26,34.21l-32.6,12.24c-0.74,0.27-3.31,1.17-2.56,1.41l36.26,11.74c0.2,0.06,0.41,0.05,0.6-0.03
			l35.09-16.69c0.73-0.33-0.44-1.4-1.22-1.56L49.9,34.03C49.75,34,48.4,34.16,48.26,34.21z"/>
		<path class="st0" d="M49.8,59.67v8.2c0,0.22,0.23,0.36,0.42,0.25l34.16-18.41c0.46-0.25,0.75-0.73,0.76-1.25
			c0.02-1.09,0.04-3.16,0.08-5.76L49.8,59.67z"/>
		<path class="st1" d="M13.16,55.3l36.05,12.85c0.29,0.1,0.59-0.11,0.59-0.42v-8.06L12.96,47.75C12.96,47.75,12.18,50.75,13.16,55.3
			z"/>
	</g>
</g>
<g id="Sandwich_x5F_top">
	<g id="Bread_x5F_Bottom_copy">
		<polyline class="st0" points="85.17,26.28 49.64,45.81 13.01,30.02 		"/>
		<path class="st0" d="M85.17,26.28v7.11c0,1.37-0.75,2.62-1.96,3.26L51.3,53.62c-1.06,0.66-2.3,0.74-3.4,0.21L14.98,39.79
			c-1.19-0.51-1.97-1.68-1.97-2.98v-6.79"/>
		<path class="st0" d="M13.01,30.02"/>
	</g>
	<g id="Ham_copy">
		<path class="st9" d="M13.12,38.03c0.33,1.03,1.05,2.78,2.04,3.2l33.89,13.24c0.35,0.15,0.73-0.11,0.72-0.49l-0.14-7.86
			L13.01,31.38"/>
		<g>
			<path class="st10" d="M49.39,3.84c-0.8-0.36-1.73-0.28-2.45,0.22L14.03,26.92c-0.66,0.46-1.06,1.22-1.06,2.03v2.01
				c0,1.01,0.61,1.91,1.54,2.29l29.3,12c1.9,0.78,3.93,1.11,5.93,0.99V4L49.39,3.84z"/>
			<path class="st3" d="M83.73,19.33L49.8,4v42.25c1.87-0.11,3.72-0.6,5.42-1.47l28.62-14.65c0.83-0.42,1.35-1.28,1.35-2.21v-6.33
				C85.18,20.62,84.62,19.74,83.73,19.33z"/>
		</g>
	</g>
	<g id="Cheese_copy">
		<g id="Shade_copy">
			<g>
				<path class="st4" d="M19.09,30.26c-0.18,2.22,4.49,12.52,4.49,12.52s7.68-3.07,12.64-4.49c4.4-1.26,6.01-9.75,6.32-11.65
					l-2.04-8.39C32.45,22.12,19.22,28.72,19.09,30.26z"/>
				<path class="st5" d="M78.39,23.69l-26.31-9.57c0,0-2.53,1.17-6.05,2.87l2.04,8.39c0.04-0.24,0.06-0.38,0.06-0.38
					s7.2,11.68,14.76,11.32c7.56-0.35,13.23,3.19,13.23,3.19C81.42,30.18,78.39,23.69,78.39,23.69z"/>
			</g>
		</g>
	</g>
	<g id="Lettuce_copy">
		<g id="bottom_copy">
			<path class="st6" d="M14.66,28.79l-1.05,0.91c0,0,2.48-0.35,4.49,2.24l2.01-1.06l0.47,1.89l1.77-0.83l3.54-1.16l-1.65,2.82
				c0,0,2.24-0.35,1.65,2.01l4.93-2.48c0,0,2.16,1.18,2.63,4.61l1.65-0.59v1.54l1.42-1.18l0.83,2.01l2.36-2.95
				c0,0,1.3-0.94,2.78,2.95c0,0,3.36-4.72,4.9,2.95c0,0,3.54-4.72,5.79-1.06c0,0,1.77-1.89,0.83-3.78c0,0,1.3-1.06,3.19,1.3
				c0,0,1.42-6.38,5.31-1.06c0,0,1.42-5.16,4.49-2.23c0,0-2.72-9.35,8.03-3.09c0,0-1.2-12.52,12.04-9.03c0,0-1.42-1.71,1.19-2.18
				l-4.55-3.07L49.8,36.55L18.68,25.73L14.66,28.79"/>
		</g>
		<path id="top_1_" class="st7" d="M11.83,22.62L8.05,24.3c0,0,0.47,2.09,1.89,2.8l3.66-0.83l-1.34,1.67c0,0,1.57-0.72,2.75,1.4
			l2.36-1.4v1.4c0,0,1.77,0,1.89,1.3c0,0,4.37-3.9,3.54,2.01c0,0,2.83-2.13,8.74,3.9c0,0,0.17-2.36-0.74-3.42
			c0,0,4.99-1.42,7.12,4.25c0,0,4.02-4.02,3.78,1.89c0,0,5.31-6.73,8.08,2.13c0,0,2.54-9.09,9.39-3.31c0,0,0.24-10.98,8.62-4.37
			c0,0-1.42-7.44,2.6-4.25c0,0-1.3-7.55,8.03-1.47c0,0,0.35-1.48,2.83-1.71c0,0-4.6-2.36,0-5.79l6.97-1.42v-1.89l-2.36-0.12
			L49.8,36.55L11.83,22.62z"/>
	</g>
	<g id="Bread_x5F_Top_copy">
		<path class="st11" d="M48.26,2.56l-32.6,12.09c-0.74,0.27-3.71,1.17-2.96,1.41L49.36,27.8c0.2,0.06,0.41,0.05,0.6-0.03
			l35.09-16.69c0.73-0.33-0.44-1.4-1.22-1.56L49.9,2.38C49.75,2.35,48.4,2.51,48.26,2.56z"/>
		<path class="st0" d="M49.8,27.88v8.2c0,0.22,0.23,0.36,0.42,0.25l34.16-18.41c0.46-0.25,0.75-0.73,0.76-1.25
			c0.02-1.09,0.04-3.16,0.08-5.76L49.8,27.88z"/>
		<path class="st9" d="M13.16,23.51l36.05,12.85c0.29,0.1,0.59-0.11,0.59-0.42v-8.06L12.57,15.96
			C12.57,15.96,12.18,18.96,13.16,23.51z"/>
	</g>
</g>
<g id="Title">
	<g>
		<path class="st9" d="M21.87,77.41c-0.08,0.06-0.16,0.09-0.23,0.11c-0.07,0.02-0.15,0-0.24-0.03c-0.08-0.03-0.15-0.09-0.21-0.18
			c-0.07-0.08-0.14-0.18-0.23-0.29c-0.08-0.11-0.19-0.21-0.31-0.32c-0.12-0.11-0.27-0.2-0.45-0.28c-0.31-0.13-0.57-0.17-0.78-0.1
			c-0.21,0.07-0.37,0.21-0.46,0.44c-0.06,0.14-0.07,0.28-0.02,0.42c0.05,0.13,0.14,0.27,0.26,0.4c0.12,0.13,0.26,0.27,0.43,0.41
			c0.17,0.14,0.34,0.29,0.51,0.45c0.17,0.16,0.33,0.33,0.48,0.5c0.15,0.18,0.27,0.38,0.35,0.59c0.09,0.21,0.13,0.44,0.13,0.7
			c0,0.25-0.07,0.53-0.2,0.83c-0.14,0.33-0.34,0.62-0.58,0.86c-0.24,0.24-0.52,0.42-0.83,0.54c-0.31,0.12-0.65,0.17-1.03,0.16
			s-0.76-0.11-1.17-0.29c-0.22-0.1-0.44-0.22-0.65-0.37c-0.21-0.15-0.41-0.31-0.59-0.49c-0.18-0.18-0.34-0.37-0.48-0.56
			c-0.14-0.2-0.25-0.4-0.33-0.6l0.83-0.56c0.06-0.04,0.13-0.07,0.21-0.08c0.08-0.01,0.16,0,0.24,0.04c0.1,0.04,0.18,0.12,0.26,0.22
			c0.07,0.11,0.16,0.22,0.25,0.36c0.09,0.13,0.21,0.26,0.35,0.4c0.14,0.13,0.32,0.25,0.54,0.35c0.3,0.13,0.57,0.17,0.79,0.11
			c0.22-0.06,0.4-0.23,0.53-0.52c0.07-0.17,0.09-0.32,0.04-0.47c-0.05-0.14-0.13-0.28-0.25-0.42c-0.12-0.13-0.26-0.27-0.43-0.4
			c-0.17-0.14-0.34-0.28-0.51-0.43c-0.17-0.15-0.33-0.32-0.48-0.49c-0.15-0.18-0.27-0.37-0.35-0.59c-0.08-0.22-0.12-0.46-0.11-0.73
			c0.01-0.27,0.08-0.57,0.23-0.9c0.12-0.27,0.29-0.51,0.51-0.72s0.48-0.37,0.77-0.48c0.3-0.11,0.63-0.16,0.98-0.14
			c0.36,0.01,0.73,0.11,1.13,0.28c0.22,0.1,0.43,0.21,0.62,0.33c0.19,0.13,0.37,0.26,0.53,0.41c0.16,0.15,0.3,0.31,0.42,0.47
			c0.12,0.16,0.22,0.33,0.3,0.51L21.87,77.41z"/>
		<path class="st9" d="M22.72,84.68c-0.24-0.11-0.44-0.24-0.6-0.39c-0.16-0.15-0.27-0.32-0.34-0.5c-0.07-0.18-0.1-0.38-0.08-0.6
			c0.01-0.21,0.07-0.43,0.17-0.66l1.15-2.64l-0.43-0.19c-0.08-0.03-0.13-0.09-0.17-0.16c-0.03-0.08-0.03-0.16,0.01-0.26l0.26-0.6
			l0.88,0.2l0.84-1.12c0.11-0.14,0.25-0.17,0.44-0.09l0.8,0.35l-0.65,1.49l1.24,0.54l-0.45,1.04l-1.24-0.54l-1.1,2.54
			c-0.05,0.12-0.06,0.23-0.04,0.33c0.02,0.1,0.09,0.18,0.2,0.22c0.06,0.02,0.11,0.04,0.15,0.04c0.04,0,0.08,0.01,0.12,0
			c0.03,0,0.07,0,0.1-0.01s0.06,0.01,0.09,0.02c0.05,0.02,0.08,0.05,0.1,0.08c0.02,0.03,0.03,0.08,0.04,0.14l0.15,0.93
			c-0.26,0.06-0.53,0.08-0.81,0.04S22.99,84.8,22.72,84.68z"/>
		<path class="st9" d="M28.68,87.18c-0.14-0.06-0.25-0.13-0.3-0.2c-0.06-0.07-0.08-0.18-0.08-0.33l0.01-0.33
			c-0.18,0.05-0.34,0.09-0.49,0.13s-0.31,0.05-0.46,0.05c-0.15,0-0.3-0.01-0.46-0.05c-0.16-0.03-0.32-0.09-0.49-0.17
			c-0.23-0.1-0.43-0.22-0.6-0.37c-0.16-0.14-0.29-0.3-0.37-0.48c-0.08-0.18-0.12-0.37-0.12-0.58c0-0.21,0.06-0.43,0.16-0.66
			c0.08-0.18,0.21-0.35,0.38-0.5c0.18-0.15,0.41-0.26,0.7-0.31s0.66-0.06,1.09,0.01c0.43,0.06,0.94,0.22,1.52,0.47l0.1-0.22
			c0.13-0.3,0.17-0.55,0.1-0.73c-0.06-0.19-0.21-0.33-0.44-0.43c-0.18-0.08-0.34-0.12-0.47-0.13c-0.13-0.01-0.25-0.01-0.37,0
			c-0.11,0.01-0.22,0.02-0.32,0.02c-0.1,0-0.21-0.02-0.33-0.07c-0.11-0.05-0.18-0.11-0.24-0.19c-0.05-0.08-0.08-0.17-0.09-0.27
			l-0.07-0.6c0.43-0.14,0.86-0.19,1.29-0.16c0.43,0.03,0.87,0.14,1.3,0.33c0.31,0.13,0.57,0.31,0.77,0.51
			c0.2,0.21,0.35,0.44,0.45,0.69s0.13,0.52,0.12,0.81c-0.01,0.29-0.09,0.58-0.21,0.87l-1.39,3.19L28.68,87.18z M27.33,85.49
			c0.2,0.09,0.38,0.13,0.56,0.12c0.18,0,0.38-0.05,0.59-0.14l0.3-0.7c-0.31-0.13-0.57-0.22-0.78-0.27
			c-0.21-0.05-0.39-0.07-0.53-0.05c-0.14,0.01-0.25,0.04-0.33,0.1c-0.08,0.06-0.14,0.13-0.17,0.22c-0.08,0.18-0.08,0.32-0.02,0.43
			C27.02,85.31,27.15,85.41,27.33,85.49z"/>
		<path class="st9" d="M36.09,85.77c-0.07,0.04-0.13,0.06-0.19,0.07c-0.06,0.01-0.12,0-0.2-0.03c-0.08-0.03-0.14-0.08-0.18-0.14
			c-0.04-0.06-0.1-0.13-0.15-0.21c-0.06-0.08-0.13-0.16-0.21-0.24c-0.09-0.08-0.21-0.15-0.36-0.22c-0.19-0.08-0.36-0.12-0.53-0.11
			c-0.17,0.01-0.32,0.06-0.47,0.15c-0.14,0.09-0.28,0.22-0.4,0.38c-0.12,0.17-0.24,0.37-0.34,0.6c-0.21,0.49-0.28,0.91-0.21,1.25
			c0.07,0.34,0.28,0.59,0.61,0.73c0.18,0.08,0.33,0.12,0.45,0.12c0.12,0,0.23-0.01,0.33-0.03c0.1-0.02,0.18-0.04,0.27-0.06
			s0.17-0.01,0.26,0.03c0.12,0.05,0.19,0.14,0.22,0.25l0.21,0.74c-0.24,0.11-0.47,0.19-0.69,0.22c-0.22,0.04-0.44,0.05-0.65,0.03
			c-0.21-0.02-0.41-0.05-0.61-0.11c-0.2-0.06-0.38-0.12-0.55-0.2c-0.31-0.14-0.58-0.32-0.82-0.57s-0.41-0.52-0.52-0.84
			c-0.12-0.32-0.17-0.67-0.15-1.05c0.02-0.38,0.12-0.79,0.3-1.21c0.16-0.37,0.36-0.69,0.61-0.96c0.25-0.27,0.53-0.48,0.85-0.62
			c0.32-0.14,0.66-0.21,1.04-0.21c0.38,0,0.77,0.1,1.19,0.28c0.4,0.17,0.72,0.39,0.97,0.65c0.25,0.26,0.44,0.56,0.57,0.92
			L36.09,85.77z"/>
		<path class="st9" d="M40.48,83.55l-1.8,4.13l0.23,0.1c0.09,0.04,0.17,0.06,0.24,0.06c0.06,0,0.13-0.03,0.21-0.08l1.59-1.02
			c0.09-0.06,0.19-0.09,0.28-0.1c0.1-0.01,0.2,0.02,0.32,0.07l1.4,0.61l-2.11,1.24c-0.1,0.06-0.2,0.1-0.3,0.14
			c-0.1,0.03-0.21,0.06-0.32,0.07c0.1,0.18,0.16,0.38,0.19,0.61l0.37,3.07l-1.38-0.6c-0.12-0.05-0.21-0.11-0.27-0.19
			c-0.07-0.07-0.11-0.17-0.12-0.29l-0.18-2.23c-0.01-0.1-0.04-0.18-0.07-0.22s-0.11-0.09-0.21-0.13l-0.3-0.13l-0.98,2.26l-1.53-0.67
			l3.21-7.38L40.48,83.55z"/>
	</g>
	<g>
		<path class="st11" d="M57.22,89.37l1.39,2.54l-1.59,0.87l-3.76-6.86l2.23-1.22c0.5-0.27,0.95-0.45,1.35-0.54
			c0.41-0.09,0.77-0.1,1.09-0.04c0.32,0.06,0.6,0.19,0.84,0.38s0.44,0.44,0.6,0.73c0.12,0.22,0.21,0.45,0.26,0.68
			c0.05,0.23,0.06,0.46,0.04,0.69c-0.03,0.23-0.09,0.46-0.19,0.69c-0.1,0.23-0.24,0.44-0.41,0.65c0.14-0.01,0.27,0.01,0.41,0.03
			c0.14,0.03,0.27,0.08,0.4,0.15l2.77,1.59l-1.44,0.79c-0.27,0.15-0.51,0.15-0.74,0.01l-2.23-1.37c-0.1-0.06-0.19-0.09-0.28-0.09
			c-0.09,0-0.19,0.03-0.32,0.1L57.22,89.37z M56.62,88.27l0.64-0.35c0.22-0.12,0.39-0.25,0.51-0.39s0.21-0.28,0.25-0.43
			c0.04-0.15,0.05-0.3,0.02-0.46c-0.03-0.15-0.08-0.31-0.16-0.46c-0.17-0.3-0.39-0.48-0.68-0.54c-0.29-0.06-0.64,0.02-1.05,0.25
			l-0.64,0.35L56.62,88.27z"/>
		<path class="st11" d="M62.43,83.37c0.32-0.18,0.65-0.29,0.97-0.34c0.32-0.05,0.63-0.03,0.93,0.06c0.3,0.08,0.58,0.24,0.84,0.46
			c0.26,0.22,0.49,0.5,0.68,0.86c0.06,0.11,0.1,0.2,0.13,0.28c0.03,0.07,0.04,0.14,0.04,0.19c0,0.05-0.02,0.1-0.05,0.14
			c-0.03,0.04-0.08,0.08-0.15,0.11L63,86.67c0.27,0.38,0.56,0.61,0.86,0.68c0.3,0.07,0.61,0.02,0.93-0.15
			c0.17-0.09,0.3-0.19,0.4-0.3c0.1-0.11,0.18-0.21,0.25-0.32c0.07-0.1,0.13-0.2,0.19-0.28s0.13-0.15,0.22-0.2
			c0.12-0.06,0.23-0.07,0.33-0.02l0.71,0.29c-0.06,0.25-0.14,0.49-0.26,0.69c-0.12,0.2-0.25,0.39-0.4,0.55
			c-0.15,0.16-0.31,0.3-0.48,0.43s-0.34,0.23-0.51,0.32c-0.34,0.19-0.69,0.31-1.05,0.36c-0.36,0.05-0.71,0.03-1.06-0.07
			c-0.34-0.09-0.67-0.27-0.98-0.53c-0.31-0.25-0.58-0.6-0.82-1.03c-0.18-0.33-0.29-0.67-0.34-1.02c-0.05-0.35-0.03-0.7,0.06-1.03
			c0.09-0.33,0.25-0.65,0.47-0.94C61.75,83.82,62.05,83.57,62.43,83.37z M63.01,84.36c-0.28,0.15-0.46,0.35-0.52,0.6
			c-0.07,0.24-0.05,0.53,0.06,0.86l1.82-1c-0.06-0.12-0.14-0.22-0.23-0.32c-0.09-0.09-0.19-0.17-0.31-0.21
			c-0.12-0.05-0.24-0.07-0.38-0.06C63.31,84.23,63.16,84.27,63.01,84.36z"/>
		<path class="st11" d="M69.43,81.13c-0.02,0.08-0.03,0.14-0.06,0.2c-0.02,0.05-0.07,0.1-0.15,0.14c-0.07,0.04-0.15,0.06-0.22,0.06
			c-0.08,0-0.16,0-0.26-0.01c-0.09,0-0.2,0-0.32,0.02c-0.12,0.02-0.25,0.07-0.39,0.15c-0.18,0.1-0.32,0.21-0.41,0.35
			c-0.09,0.14-0.15,0.29-0.17,0.46c-0.02,0.17,0,0.35,0.06,0.55c0.06,0.2,0.15,0.41,0.27,0.63c0.26,0.47,0.54,0.78,0.86,0.93
			c0.32,0.15,0.64,0.14,0.95-0.03c0.17-0.09,0.29-0.19,0.37-0.28s0.13-0.19,0.17-0.28c0.04-0.09,0.08-0.17,0.11-0.25
			c0.03-0.08,0.09-0.14,0.18-0.19c0.12-0.06,0.23-0.07,0.33-0.02l0.71,0.29c-0.06,0.26-0.14,0.48-0.24,0.68
			c-0.11,0.2-0.23,0.38-0.37,0.54s-0.29,0.29-0.46,0.42c-0.16,0.12-0.33,0.22-0.5,0.32c-0.3,0.16-0.61,0.26-0.95,0.3
			c-0.33,0.04-0.66,0-0.99-0.1c-0.32-0.1-0.63-0.28-0.93-0.53s-0.55-0.57-0.77-0.97c-0.19-0.35-0.32-0.71-0.38-1.07
			c-0.06-0.37-0.05-0.72,0.03-1.05s0.24-0.65,0.47-0.95c0.23-0.29,0.55-0.55,0.95-0.77c0.38-0.21,0.75-0.33,1.11-0.37
			c0.36-0.04,0.72,0,1.08,0.11L69.43,81.13z"/>
		<path class="st11" d="M71.66,78.3c0.32-0.18,0.65-0.29,0.97-0.33c0.32-0.05,0.63-0.03,0.93,0.06c0.3,0.08,0.58,0.24,0.84,0.46
			c0.26,0.22,0.49,0.5,0.68,0.86c0.06,0.11,0.11,0.2,0.13,0.28c0.03,0.08,0.04,0.14,0.04,0.19c0,0.05-0.02,0.1-0.05,0.14
			c-0.03,0.04-0.08,0.08-0.15,0.11l-2.82,1.55c0.27,0.38,0.56,0.61,0.86,0.68c0.3,0.07,0.61,0.02,0.93-0.15
			c0.17-0.09,0.3-0.19,0.4-0.3c0.1-0.11,0.18-0.21,0.25-0.32s0.13-0.2,0.19-0.28s0.13-0.15,0.22-0.2c0.12-0.06,0.23-0.07,0.33-0.02
			l0.71,0.29c-0.06,0.26-0.14,0.49-0.26,0.69s-0.25,0.39-0.4,0.55c-0.15,0.16-0.31,0.31-0.48,0.43c-0.17,0.12-0.34,0.23-0.51,0.32
			c-0.34,0.19-0.69,0.31-1.05,0.36c-0.36,0.05-0.71,0.03-1.06-0.07c-0.34-0.1-0.67-0.27-0.98-0.53c-0.31-0.26-0.58-0.6-0.82-1.03
			c-0.18-0.33-0.29-0.67-0.34-1.02c-0.05-0.35-0.03-0.7,0.06-1.03c0.09-0.33,0.24-0.65,0.47-0.94
			C70.99,78.76,71.29,78.51,71.66,78.3z M72.24,79.29c-0.28,0.15-0.45,0.35-0.52,0.6c-0.07,0.24-0.05,0.53,0.06,0.86l1.82-1
			c-0.06-0.12-0.14-0.22-0.23-0.32c-0.09-0.09-0.19-0.17-0.31-0.21c-0.12-0.05-0.24-0.07-0.38-0.06
			C72.55,79.16,72.4,79.21,72.24,79.29z"/>
		<path class="st11" d="M78.93,80.86c-0.23,0.13-0.46,0.21-0.67,0.24c-0.21,0.03-0.42,0.02-0.6-0.04c-0.19-0.06-0.36-0.16-0.52-0.3
			c-0.16-0.14-0.3-0.32-0.42-0.54l-1.38-2.53l-0.41,0.23c-0.08,0.04-0.15,0.05-0.23,0.03c-0.08-0.02-0.15-0.08-0.2-0.17l-0.31-0.57
			l0.69-0.58l-0.37-1.35c-0.04-0.17,0.02-0.3,0.2-0.4l0.76-0.42l0.78,1.43l1.19-0.65l0.55,1L76.8,76.9l1.33,2.43
			c0.06,0.11,0.14,0.19,0.24,0.24c0.1,0.04,0.19,0.04,0.3-0.02c0.05-0.03,0.09-0.06,0.13-0.09s0.05-0.06,0.07-0.09
			c0.02-0.03,0.04-0.06,0.05-0.08c0.02-0.02,0.04-0.04,0.07-0.06c0.04-0.02,0.08-0.03,0.12-0.03c0.04,0.01,0.08,0.02,0.14,0.05
			l0.82,0.45c-0.11,0.24-0.26,0.47-0.46,0.67C79.41,80.56,79.19,80.73,78.93,80.86z"/>
		<path class="st11" d="M82.47,78.93c-0.23,0.13-0.46,0.21-0.67,0.24c-0.21,0.03-0.42,0.02-0.61-0.04c-0.19-0.06-0.36-0.16-0.52-0.3
			s-0.3-0.32-0.42-0.54l-1.38-2.53l-0.41,0.23c-0.08,0.04-0.15,0.05-0.23,0.03c-0.08-0.02-0.15-0.08-0.2-0.17l-0.31-0.57l0.69-0.58
			l-0.37-1.35c-0.04-0.17,0.02-0.3,0.2-0.4L79,72.53l0.78,1.43l1.19-0.65l0.55,1l-1.19,0.65l1.33,2.43
			c0.06,0.11,0.14,0.19,0.24,0.24c0.1,0.04,0.2,0.04,0.3-0.02c0.05-0.03,0.09-0.06,0.13-0.09c0.03-0.03,0.05-0.06,0.07-0.09
			c0.02-0.03,0.04-0.05,0.05-0.08c0.02-0.02,0.04-0.04,0.07-0.06c0.04-0.02,0.08-0.03,0.12-0.03c0.04,0.01,0.08,0.02,0.13,0.05
			l0.82,0.45c-0.11,0.24-0.26,0.47-0.46,0.67C82.94,78.62,82.72,78.79,82.47,78.93z"/>
		<path class="st11" d="M83.62,71.74c0.32-0.18,0.65-0.29,0.97-0.33c0.32-0.05,0.63-0.03,0.93,0.06c0.3,0.08,0.58,0.24,0.84,0.46
			c0.26,0.22,0.49,0.5,0.68,0.86c0.06,0.11,0.1,0.2,0.13,0.28s0.04,0.14,0.04,0.19c0,0.05-0.02,0.1-0.05,0.14
			c-0.03,0.04-0.08,0.08-0.15,0.11l-2.82,1.54c0.27,0.38,0.56,0.61,0.86,0.68c0.3,0.07,0.61,0.02,0.93-0.15
			c0.17-0.09,0.3-0.19,0.41-0.3c0.1-0.11,0.18-0.21,0.25-0.32c0.07-0.1,0.13-0.2,0.19-0.28s0.13-0.15,0.22-0.2
			c0.12-0.06,0.23-0.07,0.33-0.02l0.71,0.29c-0.06,0.26-0.14,0.49-0.26,0.69c-0.12,0.2-0.25,0.39-0.4,0.55
			c-0.15,0.16-0.31,0.3-0.48,0.43c-0.17,0.13-0.34,0.23-0.51,0.32c-0.34,0.19-0.69,0.31-1.05,0.36c-0.36,0.05-0.71,0.03-1.06-0.07
			c-0.34-0.09-0.67-0.27-0.98-0.53c-0.31-0.25-0.58-0.6-0.82-1.03c-0.18-0.33-0.29-0.67-0.34-1.02c-0.05-0.35-0.03-0.7,0.06-1.03
			c0.09-0.33,0.25-0.65,0.47-0.94S83.24,71.95,83.62,71.74z M84.2,72.74c-0.28,0.15-0.45,0.35-0.52,0.6
			c-0.07,0.25-0.05,0.53,0.06,0.86l1.82-1c-0.06-0.12-0.14-0.22-0.23-0.32c-0.09-0.09-0.19-0.17-0.31-0.21
			c-0.12-0.05-0.24-0.07-0.38-0.06C84.5,72.61,84.35,72.65,84.2,72.74z"/>
	</g>
</g>
</svg>
