<?xml version="1.0" encoding="utf-8"?>
<!-- Generator: Adobe Illustrator 23.0.0, SVG Export Plug-In . SVG Version: 6.00 Build 0)  -->
<svg version="1.1" xmlns="http://www.w3.org/2000/svg" xmlns:xlink="http://www.w3.org/1999/xlink" x="0px" y="0px"
	 viewBox="0 0 36 36" style="enable-background:new 0 0 36 36;" xml:space="preserve">
<style type="text/css">
	.st0{fill:#EA8D2F;}
	.st1{fill:#894E44;}
	.st2{fill:#542E33;}
	.st3{fill:#923F31;}
	.st4{fill:#D8BF51;}
	.st5{fill:#F9EE41;}
	.st6{fill:#4B683D;}
	.st7{fill:#639640;}
	.st8{fill:#A15846;}
	.st9{fill:#B06345;}
	.st10{fill:#723332;}
	.st11{fill:#F9A61F;}
</style>
<g id="Sandwich_x5F_bottom">
	<g id="Bread_x5F_Bottom">
		<polyline class="st0" points="31.69,21.69 18.28,29.06 4.46,23.1 		"/>
		<path class="st0" d="M31.69,21.69v2.68c0,0.52-0.28,0.99-0.74,1.23l-12.04,6.4c-0.4,0.25-0.87,0.28-1.28,0.08l-12.42-5.3
			c-0.45-0.19-0.74-0.63-0.74-1.12V23.1"/>
		<path class="st0" d="M4.46,23.1"/>
	</g>
	<g id="Ham">
		<path class="st1" d="M18.34,32.14l-0.05-2.97L4.46,23.61v2.18c0,0.06,0.01,0.13,0.03,0.19l0,0c0.12,0.39,0.41,0.7,0.78,0.86
			l12.79,5.48C18.2,32.38,18.34,32.28,18.34,32.14z"/>
		<g>
			<path class="st2" d="M18.19,13.16c-0.3-0.14-0.65-0.11-0.92,0.08L4.85,21.93c-0.25,0.18-0.4,0.46-0.4,0.77v0.76
				c0,0.38,0.23,0.72,0.58,0.87l11.06,4.53c0.72,0.29,1.48,0.42,2.24,0.37v-16L18.19,13.16z"/>
			<path class="st3" d="M31.15,19.07l-12.81-5.84v16c0.71-0.04,1.4-0.23,2.05-0.55l10.8-5.53c0.31-0.16,0.51-0.48,0.51-0.83v-2.39
				C31.7,19.55,31.48,19.22,31.15,19.07z"/>
		</g>
	</g>
	<g id="Cheese">
		<g id="Shade">
			<g>
				<path class="st4" d="M6.76,23.19c-0.07,0.84,1.69,4.72,1.69,4.72s2.9-1.16,4.77-1.69c1.66-0.47,2.27-3.68,2.38-4.4l-0.77-3.17
					C11.8,20.12,6.81,22.61,6.76,23.19z"/>
				<path class="st5" d="M29.13,20.71L19.2,17.1c0,0-0.95,0.44-2.28,1.08l0.77,3.17c0.01-0.09,0.02-0.14,0.02-0.14
					s2.72,4.41,5.57,4.27c2.85-0.13,4.99,1.2,4.99,1.2C30.28,23.16,29.13,20.71,29.13,20.71z"/>
			</g>
		</g>
	</g>
	<g id="Lettuce">
		<g id="bottom">
			<path class="st6" d="M5.08,22.64l-0.4,0.34c0,0,0.94-0.13,1.69,0.85l0.76-0.4l0.18,0.71l0.67-0.31l1.34-0.44L8.7,24.45
				c0,0,0.85-0.13,0.62,0.76l1.86-0.94c0,0,0.81,0.45,0.99,1.74l0.62-0.22v0.58l0.53-0.45l0.31,0.76l0.89-1.11
				c0,0,0.49-0.36,1.05,1.11c0,0,1.27-1.78,1.85,1.11c0,0,1.34-1.78,2.18-0.4c0,0,0.67-0.71,0.31-1.43c0,0,0.49-0.4,1.2,0.49
				c0,0,0.53-2.41,2.01-0.4c0,0,0.53-1.95,1.69-0.84c0,0-1.02-3.53,3.03-1.16c0,0-0.45-4.72,4.54-3.41c0,0-0.54-0.65,0.45-0.82
				l-1.72-1.16l-12.79,6.91L6.6,21.48L5.08,22.64"/>
		</g>
		<path id="top" class="st7" d="M4.02,20.31l-1.42,0.58c0,0,0.18,0.85,0.71,1.11l1.38-0.31l-0.5,0.63c0,0,0.59-0.27,1.04,0.53
			l0.89-0.53v0.53c0,0,0.67,0,0.71,0.49c0,0,1.65-1.47,1.34,0.76c0,0,1.07-0.8,3.3,1.47c0,0,0.06-0.89-0.28-1.29
			c0,0,1.88-0.53,2.69,1.6c0,0,1.52-1.52,1.43,0.71c0,0,2-2.54,3.05,0.8c0,0,0.96-3.43,3.54-1.25c0,0,0.09-4.14,3.25-1.65
			c0,0-0.53-2.81,0.98-1.6c0,0-0.49-2.85,3.03-0.56c0,0,0.13-0.56,1.07-0.65c0,0-1.74-0.89,0-2.18l2.63-0.53v-0.71l-0.89-0.05
			l-13.62,7.35L4.02,20.31z"/>
	</g>
	<g id="Bread_x5F_Top">
		<path class="st8" d="M17.76,12.68L5.46,17.3c-0.28,0.1-1.25,0.44-0.97,0.53l13.68,4.43c0.07,0.02,0.15,0.02,0.22-0.01l13.24-6.3
			c0.27-0.12-0.17-0.53-0.46-0.59l-12.8-2.75C18.33,12.6,17.82,12.66,17.76,12.68z"/>
		<path class="st0" d="M18.34,22.29v3.09c0,0.08,0.09,0.13,0.16,0.1l12.89-6.95c0.17-0.09,0.28-0.27,0.29-0.47
			c0.01-0.41,0.02-1.19,0.03-2.17L18.34,22.29z"/>
		<path class="st1" d="M4.52,20.64l13.6,4.85c0.11,0.04,0.22-0.04,0.22-0.16v-3.04l-13.9-4.5C4.44,17.79,4.15,18.93,4.52,20.64z"/>
	</g>
</g>
<g id="Sandwich_x5F_top">
	<g id="Bread_x5F_Bottom_copy">
		<polyline class="st0" points="31.69,9.69 18.28,17.06 4.46,11.1 		"/>
		<path class="st0" d="M31.69,9.69v2.68c0,0.52-0.28,0.99-0.74,1.23l-12.04,6.4c-0.4,0.25-0.87,0.28-1.28,0.08l-12.42-5.3
			c-0.45-0.19-0.74-0.63-0.74-1.12V11.1"/>
		<path class="st0" d="M4.46,11.1"/>
	</g>
	<g id="Ham_copy">
		<path class="st9" d="M4.5,14.12c0.12,0.39,0.4,1.05,0.77,1.21l12.79,5c0.13,0.06,0.28-0.04,0.27-0.18l-0.05-2.97L4.46,11.61"/>
		<g>
			<path class="st10" d="M18.19,1.22c-0.3-0.14-0.65-0.11-0.92,0.08L4.85,9.93c-0.25,0.18-0.4,0.46-0.4,0.77v0.76
				c0,0.38,0.23,0.72,0.58,0.87l11.06,4.53c0.72,0.29,1.48,0.42,2.24,0.37V1.28L18.19,1.22z"/>
			<path class="st3" d="M31.15,7.07L18.34,1.28v15.94c0.71-0.04,1.4-0.23,2.05-0.55l10.8-5.53c0.31-0.16,0.51-0.48,0.51-0.83V7.92
				C31.7,7.55,31.48,7.22,31.15,7.07z"/>
		</g>
	</g>
	<g id="Cheese_copy">
		<g id="Shade_copy">
			<g>
				<path class="st4" d="M6.76,11.19c-0.07,0.84,1.69,4.72,1.69,4.72s2.9-1.16,4.77-1.69c1.66-0.47,2.27-3.68,2.38-4.4l-0.77-3.17
					C11.8,8.12,6.81,10.61,6.76,11.19z"/>
				<path class="st5" d="M29.13,8.71L19.2,5.1c0,0-0.95,0.44-2.28,1.08l0.77,3.17c0.01-0.09,0.02-0.14,0.02-0.14
					s2.72,4.41,5.57,4.27c2.85-0.13,4.99,1.2,4.99,1.2C30.28,11.16,29.13,8.71,29.13,8.71z"/>
			</g>
		</g>
	</g>
	<g id="Lettuce_copy">
		<g id="bottom_copy">
			<path class="st6" d="M5.08,10.64l-0.4,0.34c0,0,0.94-0.13,1.69,0.85l0.76-0.4l0.18,0.71l0.67-0.31l1.34-0.44L8.7,12.45
				c0,0,0.85-0.13,0.62,0.76l1.86-0.94c0,0,0.81,0.45,0.99,1.74l0.62-0.22v0.58l0.53-0.45l0.31,0.76l0.89-1.11
				c0,0,0.49-0.36,1.05,1.11c0,0,1.27-1.78,1.85,1.11c0,0,1.34-1.78,2.18-0.4c0,0,0.67-0.71,0.31-1.43c0,0,0.49-0.4,1.2,0.49
				c0,0,0.53-2.41,2.01-0.4c0,0,0.53-1.95,1.69-0.84c0,0-1.02-3.53,3.03-1.16c0,0-0.45-4.72,4.54-3.41c0,0-0.54-0.65,0.45-0.82
				l-1.72-1.16l-12.79,6.91L6.6,9.48L5.08,10.64"/>
		</g>
		<path id="top_1_" class="st7" d="M4.02,8.31L2.59,8.95c0,0,0.18,0.79,0.71,1.06l1.38-0.31l-0.5,0.63c0,0,0.59-0.27,1.04,0.53
			l0.89-0.53v0.53c0,0,0.67,0,0.71,0.49c0,0,1.65-1.47,1.34,0.76c0,0,1.07-0.8,3.3,1.47c0,0,0.06-0.89-0.28-1.29
			c0,0,1.88-0.53,2.69,1.6c0,0,1.52-1.52,1.43,0.71c0,0,2-2.54,3.05,0.8c0,0,0.96-3.43,3.54-1.25c0,0,0.09-4.14,3.25-1.65
			c0,0-0.53-2.81,0.98-1.6c0,0-0.49-2.85,3.03-0.56c0,0,0.13-0.56,1.07-0.65c0,0-1.74-0.89,0-2.18l2.63-0.53V6.26l-0.89-0.05
			l-13.62,7.35L4.02,8.31z"/>
	</g>
	<g id="Bread_x5F_Top_copy">
		<path class="st11" d="M17.76,0.74L5.46,5.3c-0.28,0.1-1.4,0.44-1.12,0.53l13.83,4.43c0.07,0.02,0.15,0.02,0.22-0.01l13.24-6.3
			c0.27-0.12-0.17-0.53-0.46-0.59l-12.8-2.69C18.33,0.66,17.82,0.72,17.76,0.74z"/>
		<path class="st0" d="M18.34,10.29v3.09c0,0.08,0.09,0.13,0.16,0.1L31.4,6.54c0.17-0.09,0.28-0.27,0.29-0.47
			c0.01-0.41,0.02-1.19,0.03-2.17L18.34,10.29z"/>
		<path class="st9" d="M4.52,8.64l13.6,4.85c0.11,0.04,0.22-0.04,0.22-0.16v-3.04L4.29,5.8C4.29,5.8,4.15,6.93,4.52,8.64z"/>
	</g>
</g>
<g id="Title">
	<g>
		<path class="st9" d="M7.83,29.02c-0.03,0.02-0.06,0.04-0.09,0.04c-0.03,0.01-0.06,0-0.09-0.01c-0.03-0.01-0.06-0.04-0.08-0.07
			c-0.02-0.03-0.05-0.07-0.08-0.11c-0.03-0.04-0.07-0.08-0.12-0.12c-0.04-0.04-0.1-0.08-0.17-0.11c-0.12-0.05-0.22-0.06-0.3-0.04
			c-0.08,0.02-0.14,0.08-0.18,0.17c-0.02,0.05-0.02,0.11,0,0.16c0.02,0.05,0.05,0.1,0.1,0.15c0.04,0.05,0.1,0.1,0.16,0.16
			c0.06,0.05,0.13,0.11,0.19,0.17c0.06,0.06,0.12,0.12,0.18,0.19c0.06,0.07,0.1,0.14,0.13,0.22c0.03,0.08,0.05,0.17,0.05,0.26
			c0,0.1-0.02,0.2-0.07,0.31c-0.05,0.13-0.13,0.23-0.22,0.32c-0.09,0.09-0.19,0.16-0.31,0.2c-0.12,0.04-0.25,0.06-0.39,0.06
			c-0.14-0.01-0.29-0.04-0.44-0.11c-0.08-0.04-0.17-0.08-0.25-0.14c-0.08-0.06-0.15-0.12-0.22-0.18c-0.07-0.07-0.13-0.14-0.18-0.21
			c-0.05-0.08-0.09-0.15-0.12-0.23l0.31-0.21c0.02-0.02,0.05-0.03,0.08-0.03s0.06,0,0.09,0.01c0.04,0.02,0.07,0.04,0.1,0.08
			C5.93,30,5.97,30.05,6,30.09c0.04,0.05,0.08,0.1,0.13,0.15c0.05,0.05,0.12,0.09,0.2,0.13c0.11,0.05,0.21,0.06,0.3,0.04
			c0.08-0.02,0.15-0.09,0.2-0.2c0.03-0.06,0.03-0.12,0.02-0.18c-0.02-0.06-0.05-0.11-0.09-0.16c-0.05-0.05-0.1-0.1-0.16-0.15
			c-0.06-0.05-0.13-0.11-0.19-0.16s-0.13-0.12-0.18-0.19c-0.06-0.07-0.1-0.14-0.13-0.22c-0.03-0.08-0.05-0.17-0.04-0.28
			c0-0.1,0.03-0.21,0.09-0.34c0.04-0.1,0.11-0.19,0.19-0.27c0.08-0.08,0.18-0.14,0.29-0.18c0.11-0.04,0.24-0.06,0.37-0.05
			c0.14,0,0.28,0.04,0.43,0.1c0.08,0.04,0.16,0.08,0.23,0.13c0.07,0.05,0.14,0.1,0.2,0.16C7.9,28.48,7.96,28.54,8,28.6
			c0.04,0.06,0.08,0.13,0.11,0.19L7.83,29.02z"/>
		<path class="st9" d="M8.15,31.76c-0.09-0.04-0.17-0.09-0.23-0.15c-0.06-0.06-0.1-0.12-0.13-0.19c-0.03-0.07-0.04-0.15-0.03-0.23
			s0.03-0.16,0.06-0.25l0.43-1L8.1,29.88c-0.03-0.01-0.05-0.03-0.06-0.06c-0.01-0.03-0.01-0.06,0.01-0.1l0.1-0.22l0.33,0.07
			l0.32-0.42c0.04-0.05,0.1-0.06,0.17-0.04l0.3,0.13l-0.25,0.56l0.47,0.21l-0.17,0.39l-0.47-0.2l-0.42,0.96
			c-0.02,0.04-0.02,0.09-0.02,0.13c0.01,0.04,0.03,0.07,0.07,0.08c0.02,0.01,0.04,0.01,0.06,0.02s0.03,0,0.04,0
			c0.01,0,0.03,0,0.04,0c0.01,0,0.02,0,0.04,0.01c0.02,0.01,0.03,0.02,0.04,0.03c0.01,0.01,0.01,0.03,0.02,0.05l0.06,0.35
			c-0.1,0.02-0.2,0.03-0.31,0.02S8.25,31.8,8.15,31.76z"/>
		<path class="st9" d="M10.4,32.7c-0.05-0.02-0.09-0.05-0.11-0.08c-0.02-0.03-0.03-0.07-0.03-0.12l0.01-0.13
			c-0.07,0.02-0.13,0.04-0.19,0.05c-0.06,0.01-0.12,0.02-0.17,0.02c-0.06,0-0.12,0-0.17-0.02c-0.06-0.01-0.12-0.03-0.19-0.06
			c-0.09-0.04-0.16-0.08-0.23-0.14c-0.06-0.05-0.11-0.11-0.14-0.18c-0.03-0.07-0.05-0.14-0.04-0.22c0-0.08,0.02-0.16,0.06-0.25
			c0.03-0.07,0.08-0.13,0.14-0.19c0.07-0.06,0.15-0.1,0.27-0.12c0.11-0.02,0.25-0.02,0.41,0c0.16,0.02,0.35,0.08,0.57,0.18
			l0.04-0.08c0.05-0.11,0.06-0.21,0.04-0.28c-0.02-0.07-0.08-0.13-0.16-0.16c-0.07-0.03-0.13-0.05-0.18-0.05c-0.05,0-0.1,0-0.14,0
			s-0.08,0.01-0.12,0.01c-0.04,0-0.08-0.01-0.13-0.03c-0.04-0.02-0.07-0.04-0.09-0.07c-0.02-0.03-0.03-0.06-0.03-0.1l-0.03-0.23
			c0.16-0.05,0.32-0.07,0.49-0.06c0.16,0.01,0.33,0.05,0.49,0.12c0.12,0.05,0.21,0.12,0.29,0.19c0.08,0.08,0.13,0.17,0.17,0.26
			c0.04,0.1,0.05,0.2,0.05,0.31c-0.01,0.11-0.03,0.22-0.08,0.33l-0.52,1.2L10.4,32.7z M9.89,32.06c0.07,0.03,0.14,0.05,0.21,0.05
			c0.07,0,0.14-0.02,0.22-0.05l0.11-0.26c-0.12-0.05-0.21-0.08-0.29-0.1c-0.08-0.02-0.15-0.02-0.2-0.02c-0.05,0-0.09,0.02-0.12,0.04
			c-0.03,0.02-0.05,0.05-0.07,0.08c-0.03,0.07-0.03,0.12-0.01,0.16C9.78,32,9.82,32.03,9.89,32.06z"/>
		<path class="st9" d="M13.2,32.17c-0.03,0.01-0.05,0.02-0.07,0.03c-0.02,0.01-0.05,0-0.08-0.01c-0.03-0.01-0.05-0.03-0.07-0.05
			c-0.02-0.02-0.04-0.05-0.06-0.08c-0.02-0.03-0.05-0.06-0.08-0.09c-0.03-0.03-0.08-0.06-0.13-0.08c-0.07-0.03-0.14-0.04-0.2-0.04
			c-0.06,0-0.12,0.02-0.18,0.06c-0.05,0.03-0.1,0.08-0.15,0.15c-0.05,0.06-0.09,0.14-0.13,0.23c-0.08,0.18-0.11,0.34-0.08,0.47
			c0.03,0.13,0.1,0.22,0.23,0.28c0.07,0.03,0.12,0.04,0.17,0.04c0.05,0,0.09,0,0.12-0.01s0.07-0.02,0.1-0.02
			c0.03-0.01,0.06,0,0.1,0.01c0.05,0.02,0.07,0.05,0.08,0.1l0.08,0.28c-0.09,0.04-0.18,0.07-0.26,0.08
			c-0.08,0.01-0.17,0.02-0.25,0.01c-0.08-0.01-0.16-0.02-0.23-0.04s-0.14-0.05-0.21-0.08c-0.12-0.05-0.22-0.12-0.31-0.21
			c-0.09-0.09-0.15-0.2-0.2-0.32s-0.06-0.25-0.06-0.4c0.01-0.14,0.04-0.3,0.11-0.46c0.06-0.14,0.14-0.26,0.23-0.36
			c0.09-0.1,0.2-0.18,0.32-0.23c0.12-0.05,0.25-0.08,0.39-0.08c0.14,0,0.29,0.04,0.45,0.1c0.15,0.07,0.27,0.15,0.37,0.25
			c0.09,0.1,0.17,0.21,0.22,0.35L13.2,32.17z"/>
		<path class="st9" d="M14.85,31.33l-0.68,1.56l0.08,0.04c0.04,0.02,0.07,0.02,0.09,0.02c0.02,0,0.05-0.01,0.08-0.03l0.6-0.38
			c0.03-0.02,0.07-0.04,0.11-0.04c0.04,0,0.08,0.01,0.12,0.03l0.53,0.23l-0.8,0.47c-0.04,0.02-0.08,0.04-0.11,0.05
			c-0.04,0.01-0.08,0.02-0.12,0.03c0.04,0.07,0.06,0.14,0.07,0.23l0.14,1.16l-0.52-0.23c-0.04-0.02-0.08-0.04-0.1-0.07
			c-0.03-0.03-0.04-0.06-0.04-0.11l-0.07-0.84c0-0.04-0.01-0.07-0.03-0.08c-0.01-0.02-0.04-0.04-0.08-0.05l-0.11-0.05l-0.37,0.85
			l-0.58-0.25l1.21-2.78L14.85,31.33z"/>
	</g>
	<g>
		<path class="st11" d="M21.12,33.55l0.53,0.96l-0.6,0.33l-1.42-2.59l0.84-0.46c0.19-0.1,0.36-0.17,0.51-0.21
			c0.15-0.03,0.29-0.04,0.41-0.02c0.12,0.02,0.23,0.07,0.32,0.14s0.16,0.16,0.22,0.27c0.05,0.08,0.08,0.17,0.1,0.26
			c0.02,0.09,0.02,0.17,0.01,0.26s-0.03,0.17-0.07,0.26c-0.04,0.08-0.09,0.17-0.16,0.24c0.05,0,0.1,0,0.15,0.01
			c0.05,0.01,0.1,0.03,0.15,0.06l1.05,0.6l-0.54,0.3c-0.1,0.05-0.19,0.06-0.28,0l-0.84-0.52c-0.04-0.02-0.07-0.03-0.11-0.03
			c-0.03,0-0.07,0.01-0.12,0.04L21.12,33.55z M20.89,33.14L21.13,33c0.08-0.04,0.15-0.09,0.19-0.14c0.05-0.05,0.08-0.11,0.09-0.17
			c0.02-0.06,0.02-0.11,0.01-0.17c-0.01-0.06-0.03-0.12-0.06-0.17c-0.06-0.11-0.15-0.18-0.26-0.21c-0.11-0.02-0.24,0.01-0.4,0.09
			l-0.24,0.13L20.89,33.14z"/>
		<path class="st11" d="M23.08,31.29c0.12-0.07,0.24-0.11,0.37-0.13s0.24-0.01,0.35,0.02c0.11,0.03,0.22,0.09,0.32,0.17
			c0.1,0.08,0.18,0.19,0.26,0.32c0.02,0.04,0.04,0.08,0.05,0.1c0.01,0.03,0.02,0.05,0.01,0.07c0,0.02-0.01,0.04-0.02,0.05
			c-0.01,0.01-0.03,0.03-0.06,0.04l-1.06,0.58c0.1,0.14,0.21,0.23,0.32,0.26c0.11,0.03,0.23,0.01,0.35-0.06
			c0.06-0.04,0.11-0.07,0.15-0.11c0.04-0.04,0.07-0.08,0.09-0.12c0.03-0.04,0.05-0.07,0.07-0.11s0.05-0.06,0.08-0.08
			c0.04-0.02,0.09-0.03,0.13-0.01l0.27,0.11c-0.02,0.1-0.05,0.18-0.1,0.26c-0.04,0.08-0.09,0.15-0.15,0.21
			c-0.06,0.06-0.12,0.12-0.18,0.16c-0.07,0.04-0.13,0.09-0.19,0.12c-0.13,0.07-0.26,0.12-0.4,0.14s-0.27,0.01-0.4-0.03
			c-0.13-0.04-0.25-0.1-0.37-0.2c-0.12-0.1-0.22-0.23-0.31-0.39c-0.07-0.12-0.11-0.25-0.13-0.38c-0.02-0.13-0.01-0.26,0.02-0.39
			s0.09-0.24,0.18-0.35C22.83,31.46,22.94,31.36,23.08,31.29z M23.3,31.66c-0.11,0.06-0.17,0.13-0.2,0.23
			c-0.03,0.09-0.02,0.2,0.02,0.32l0.69-0.38c-0.02-0.04-0.05-0.08-0.09-0.12s-0.07-0.06-0.12-0.08c-0.04-0.02-0.09-0.03-0.14-0.03
			C23.42,31.61,23.36,31.63,23.3,31.66z"/>
		<path class="st11" d="M25.72,30.44c-0.01,0.03-0.01,0.05-0.02,0.07s-0.03,0.04-0.06,0.05c-0.03,0.01-0.05,0.02-0.08,0.02
			c-0.03,0-0.06,0-0.1,0c-0.04,0-0.08,0-0.12,0.01s-0.09,0.03-0.15,0.06c-0.07,0.04-0.12,0.08-0.16,0.13
			c-0.04,0.05-0.06,0.11-0.06,0.17c-0.01,0.06,0,0.13,0.02,0.21c0.02,0.08,0.06,0.16,0.1,0.24c0.1,0.18,0.21,0.29,0.33,0.35
			c0.12,0.06,0.24,0.05,0.36-0.01c0.06-0.04,0.11-0.07,0.14-0.11c0.03-0.04,0.05-0.07,0.07-0.11s0.03-0.06,0.04-0.09
			c0.01-0.03,0.04-0.05,0.07-0.07c0.04-0.02,0.09-0.03,0.13-0.01l0.27,0.11c-0.02,0.1-0.05,0.18-0.09,0.26
			c-0.04,0.08-0.09,0.14-0.14,0.2c-0.05,0.06-0.11,0.11-0.17,0.16c-0.06,0.04-0.13,0.08-0.19,0.12c-0.11,0.06-0.23,0.1-0.36,0.11
			s-0.25,0-0.37-0.04c-0.12-0.04-0.24-0.1-0.35-0.2c-0.11-0.09-0.21-0.22-0.29-0.37c-0.07-0.13-0.12-0.27-0.14-0.41
			c-0.02-0.14-0.02-0.27,0.01-0.4c0.03-0.13,0.09-0.25,0.18-0.36c0.09-0.11,0.21-0.21,0.36-0.29c0.14-0.08,0.28-0.13,0.42-0.14
			s0.27,0,0.41,0.04L25.72,30.44z"/>
		<path class="st11" d="M26.57,29.37c0.12-0.07,0.24-0.11,0.37-0.13s0.24-0.01,0.35,0.02c0.11,0.03,0.22,0.09,0.32,0.17
			c0.1,0.08,0.18,0.19,0.26,0.32c0.02,0.04,0.04,0.08,0.05,0.1c0.01,0.03,0.02,0.05,0.01,0.07c0,0.02-0.01,0.04-0.02,0.05
			c-0.01,0.01-0.03,0.03-0.06,0.04l-1.06,0.58c0.1,0.14,0.21,0.23,0.32,0.26c0.11,0.03,0.23,0.01,0.35-0.06
			c0.06-0.04,0.11-0.07,0.15-0.11c0.04-0.04,0.07-0.08,0.09-0.12c0.03-0.04,0.05-0.07,0.07-0.11s0.05-0.06,0.08-0.07
			c0.04-0.02,0.09-0.03,0.13-0.01l0.27,0.11c-0.02,0.1-0.05,0.18-0.1,0.26c-0.04,0.08-0.09,0.15-0.15,0.21
			c-0.06,0.06-0.12,0.12-0.18,0.16c-0.07,0.05-0.13,0.09-0.19,0.12c-0.13,0.07-0.26,0.12-0.4,0.14s-0.27,0.01-0.4-0.03
			c-0.13-0.04-0.25-0.1-0.37-0.2c-0.12-0.1-0.22-0.23-0.31-0.39c-0.07-0.12-0.11-0.25-0.13-0.38c-0.02-0.13-0.01-0.26,0.02-0.39
			s0.09-0.24,0.18-0.35C26.31,29.54,26.43,29.45,26.57,29.37z M26.79,29.75c-0.11,0.06-0.17,0.13-0.2,0.23
			c-0.03,0.09-0.02,0.2,0.02,0.32l0.69-0.38c-0.02-0.04-0.05-0.08-0.09-0.12c-0.03-0.04-0.07-0.06-0.12-0.08
			c-0.04-0.02-0.09-0.03-0.14-0.03C26.9,29.7,26.85,29.72,26.79,29.75z"/>
		<path class="st11" d="M29.31,30.34c-0.09,0.05-0.17,0.08-0.25,0.09c-0.08,0.01-0.16,0.01-0.23-0.02c-0.07-0.02-0.14-0.06-0.2-0.11
			c-0.06-0.05-0.11-0.12-0.16-0.2l-0.52-0.95l-0.16,0.09c-0.03,0.02-0.06,0.02-0.09,0.01s-0.06-0.03-0.07-0.06l-0.12-0.22l0.26-0.22
			l-0.14-0.51c-0.02-0.07,0.01-0.12,0.07-0.15L28,27.93l0.29,0.54l0.45-0.25l0.21,0.38l-0.45,0.25l0.5,0.92
			c0.02,0.04,0.05,0.07,0.09,0.09c0.04,0.02,0.07,0.01,0.11-0.01c0.02-0.01,0.04-0.02,0.05-0.03c0.01-0.01,0.02-0.02,0.03-0.03
			c0.01-0.01,0.01-0.02,0.02-0.03c0.01-0.01,0.02-0.02,0.03-0.02c0.02-0.01,0.03-0.01,0.05-0.01c0.01,0,0.03,0.01,0.05,0.02
			l0.31,0.17c-0.04,0.09-0.1,0.18-0.17,0.25S29.41,30.29,29.31,30.34z"/>
		<path class="st11" d="M30.65,29.61c-0.09,0.05-0.17,0.08-0.25,0.09s-0.16,0.01-0.23-0.02c-0.07-0.02-0.14-0.06-0.2-0.11
			c-0.06-0.05-0.11-0.12-0.16-0.2l-0.52-0.95l-0.16,0.09c-0.03,0.02-0.06,0.02-0.09,0.01c-0.03-0.01-0.05-0.03-0.07-0.06l-0.12-0.22
			l0.26-0.22l-0.14-0.51c-0.02-0.07,0.01-0.12,0.07-0.15l0.29-0.16l0.3,0.54l0.45-0.25l0.21,0.38l-0.45,0.25l0.5,0.92
			c0.02,0.04,0.05,0.07,0.09,0.09c0.04,0.02,0.07,0.01,0.11-0.01c0.02-0.01,0.04-0.02,0.05-0.03c0.01-0.01,0.02-0.02,0.03-0.03
			s0.01-0.02,0.02-0.03c0.01-0.01,0.02-0.02,0.03-0.02c0.02-0.01,0.03-0.01,0.05-0.01c0.01,0,0.03,0.01,0.05,0.02l0.31,0.17
			c-0.04,0.09-0.1,0.18-0.17,0.25C30.83,29.49,30.74,29.56,30.65,29.61z"/>
		<path class="st11" d="M31.08,26.9c0.12-0.07,0.24-0.11,0.37-0.13s0.24-0.01,0.35,0.02c0.11,0.03,0.22,0.09,0.32,0.17
			c0.1,0.08,0.18,0.19,0.26,0.32c0.02,0.04,0.04,0.08,0.05,0.1c0.01,0.03,0.02,0.05,0.01,0.07c0,0.02-0.01,0.04-0.02,0.05
			c-0.01,0.01-0.03,0.03-0.06,0.04l-1.06,0.58c0.1,0.14,0.21,0.23,0.32,0.26c0.11,0.03,0.23,0.01,0.35-0.06
			c0.06-0.04,0.12-0.07,0.15-0.11c0.04-0.04,0.07-0.08,0.1-0.12c0.03-0.04,0.05-0.07,0.07-0.11c0.02-0.03,0.05-0.06,0.08-0.07
			c0.04-0.02,0.09-0.03,0.13-0.01l0.27,0.11c-0.02,0.1-0.05,0.18-0.1,0.26c-0.04,0.08-0.09,0.15-0.15,0.21
			c-0.06,0.06-0.12,0.12-0.18,0.16c-0.06,0.05-0.13,0.09-0.19,0.12c-0.13,0.07-0.26,0.12-0.4,0.14c-0.14,0.02-0.27,0.01-0.4-0.03
			c-0.13-0.04-0.25-0.1-0.37-0.2c-0.12-0.1-0.22-0.23-0.31-0.39c-0.07-0.12-0.11-0.25-0.13-0.38c-0.02-0.13-0.01-0.26,0.02-0.39
			c0.03-0.13,0.09-0.24,0.18-0.35S30.94,26.98,31.08,26.9z M31.3,27.27c-0.11,0.06-0.17,0.13-0.2,0.23
			c-0.03,0.09-0.02,0.2,0.02,0.32l0.69-0.38c-0.02-0.04-0.05-0.08-0.09-0.12c-0.03-0.04-0.07-0.06-0.12-0.08
			c-0.04-0.02-0.09-0.03-0.14-0.03C31.41,27.22,31.36,27.24,31.3,27.27z"/>
	</g>
</g>
</svg>
