<?xml version="1.0" encoding="utf-8"?>
<!-- Generator: Adobe Illustrator 23.0.0, SVG Export Plug-In . SVG Version: 6.00 Build 0)  -->
<svg version="1.1" xmlns="http://www.w3.org/2000/svg" xmlns:xlink="http://www.w3.org/1999/xlink" x="0px" y="0px"
	 viewBox="0 0 192 192" style="enable-background:new 0 0 192 192;" xml:space="preserve">
<style type="text/css">
	.st0{fill:#EA8D2F;}
	.st1{fill:#894E44;}
	.st2{fill:#542E33;}
	.st3{fill:#923F31;}
	.st4{fill:#D8BF51;}
	.st5{fill:#F9EE41;}
	.st6{fill:#4B683D;}
	.st7{fill:#639640;}
	.st8{fill:#A15846;}
	.st9{fill:#B06345;}
	.st10{fill:#723332;}
	.st11{fill:#F9A61F;}
</style>
<g id="Sandwich_x5F_bottom">
	<g id="Bread_x5F_Bottom">
		<polyline class="st0" points="169.88,116.33 99.41,155.07 26.78,123.74 		"/>
		<path class="st0" d="M169.88,116.33v14.1c0,2.71-1.5,5.2-3.89,6.47l-63.28,33.66c-2.1,1.31-4.55,1.46-6.75,0.41l-65.28-27.85
			c-2.37-1.01-3.9-3.34-3.9-5.91v-13.46"/>
		<path class="st0" d="M26.78,123.74"/>
	</g>
	<g id="Ham">
		<path class="st1" d="M99.7,171.25l-0.28-15.59l-72.63-29.22v11.44c0,0.34,0.05,0.68,0.16,1h0c0.65,2.03,2.14,3.69,4.1,4.53
			l67.22,28.82C98.95,172.51,99.71,172,99.7,171.25z"/>
		<g>
			<path class="st2" d="M98.93,71.53c-1.58-0.72-3.43-0.55-4.86,0.44L28.8,117.6c-1.32,0.92-2.1,2.42-2.1,4.03v3.98
				c0,2,1.21,3.79,3.05,4.55l58.1,23.79c3.77,1.54,7.79,2.19,11.76,1.97V71.84L98.93,71.53z"/>
			<path class="st3" d="M167.03,102.55L99.73,71.84v84.08c3.71-0.21,7.37-1.19,10.75-2.92l56.75-29.05
				c1.64-0.84,2.68-2.53,2.68-4.38v-12.55C169.91,105.1,168.79,103.35,167.03,102.55z"/>
		</g>
	</g>
	<g id="Cheese">
		<g id="Shade">
			<g>
				<path class="st4" d="M38.84,124.22c-0.36,4.4,8.9,24.83,8.9,24.83s15.22-6.09,25.06-8.9c8.73-2.49,11.92-19.34,12.53-23.11
					l-4.05-16.64C65.32,108.09,39.09,121.16,38.84,124.22z"/>
				<path class="st5" d="M156.44,111.19l-52.18-18.98c0,0-5.02,2.33-12.01,5.69l4.05,16.64c0.08-0.48,0.11-0.75,0.11-0.75
					s14.29,23.16,29.28,22.45c14.99-0.7,26.23,6.32,26.23,6.32C162.46,124.06,156.44,111.19,156.44,111.19z"/>
			</g>
		</g>
	</g>
	<g id="Lettuce">
		<g id="bottom">
			<path class="st6" d="M30.04,121.31l-2.08,1.81c0,0,4.92-0.7,8.9,4.45l3.98-2.11l0.94,3.75l3.51-1.64l7.03-2.31l-3.28,5.59
				c0,0,4.45-0.7,3.28,3.98l9.77-4.92c0,0,4.28,2.34,5.22,9.13l3.28-1.17v3.04l2.81-2.34l1.64,3.98l4.68-5.86
				c0,0,2.58-1.87,5.51,5.86c0,0,6.67-9.37,9.72,5.86c0,0,7.03-9.37,11.48-2.11c0,0,3.51-3.75,1.64-7.49c0,0,2.58-2.11,6.32,2.58
				c0,0,2.81-12.65,10.54-2.11c0,0,2.81-10.24,8.9-4.42c0,0-5.39-18.53,15.93-6.12c0,0-2.37-24.83,23.87-17.92
				c0,0-2.82-3.4,2.36-4.33l-9.03-6.09l-67.21,36.3l-61.72-21.46L30.04,121.31"/>
		</g>
		<path id="top" class="st7" d="M24.43,109.07l-7.49,3.04c0,0,0.93,4.45,3.74,5.86l7.26-1.64l-2.65,3.31c0,0,3.12-1.44,5.46,2.78
			l4.68-2.78v2.78c0,0,3.51,0,3.75,2.58c0,0,8.67-7.73,7.03,3.98c0,0,5.62-4.22,17.33,7.73c0,0,0.34-4.68-1.47-6.79
			c0,0,9.9-2.81,14.12,8.43c0,0,7.96-7.96,7.49,3.75c0,0,10.52-13.35,16.03,4.22c0,0,5.04-18.03,18.63-6.56
			c0,0,0.47-21.78,17.1-8.67c0,0-2.81-14.75,5.15-8.43c0,0-2.58-14.98,15.93-2.92c0,0,0.7-2.93,5.62-3.4c0,0-9.13-4.68,0-11.48
			l13.82-2.81V98.3l-4.69-0.24L99.73,136.7L24.43,109.07z"/>
	</g>
	<g id="Bread_x5F_Top">
		<path class="st8" d="M96.68,68.99L32.03,93.26c-1.47,0.53-6.57,2.32-5.08,2.8l71.92,23.28c0.39,0.13,0.81,0.1,1.18-0.07
			l69.58-33.1c1.44-0.66-0.87-2.78-2.42-3.1L99.93,68.63C99.64,68.57,96.97,68.89,96.68,68.99z"/>
		<path class="st0" d="M99.73,119.49v16.26c0,0.43,0.46,0.7,0.84,0.5l67.75-36.51c0.92-0.49,1.49-1.44,1.51-2.48
			c0.03-2.17,0.09-6.28,0.15-11.43L99.73,119.49z"/>
		<path class="st1" d="M27.08,110.83l71.49,25.48c0.57,0.2,1.16-0.22,1.16-0.83v-15.98L26.68,95.86
			C26.68,95.86,25.13,101.81,27.08,110.83z"/>
	</g>
</g>
<g id="Sandwich_x5F_top">
	<g id="Bread_x5F_Bottom_copy">
		<polyline class="st0" points="169.88,53.27 99.41,92.01 26.78,60.68 		"/>
		<path class="st0" d="M169.88,53.27v14.1c0,2.71-1.5,5.2-3.89,6.47l-63.28,33.66c-2.1,1.31-4.55,1.46-6.75,0.41L30.69,80.05
			c-2.37-1.01-3.9-3.34-3.9-5.91V60.68"/>
		<path class="st0" d="M26.78,60.68"/>
	</g>
	<g id="Ham_copy">
		<path class="st9" d="M26.99,76.56c0.65,2.03,2.09,5.5,4.05,6.34l67.22,26.25c0.69,0.29,1.45-0.22,1.44-0.97L99.41,92.6
			L26.78,63.38"/>
		<g>
			<path class="st10" d="M98.93,8.76c-1.58-0.72-3.43-0.55-4.86,0.44L28.8,54.54c-1.32,0.92-2.1,2.42-2.1,4.03v3.98
				c0,2,1.21,3.79,3.05,4.55l58.1,23.79c3.77,1.54,7.79,2.19,11.76,1.97V9.08L98.93,8.76z"/>
			<path class="st3" d="M167.03,39.49L99.73,9.08v83.79c3.71-0.21,7.37-1.19,10.75-2.92l56.75-29.05c1.64-0.84,2.68-2.53,2.68-4.38
				V43.97C169.91,42.04,168.79,40.29,167.03,39.49z"/>
		</g>
	</g>
	<g id="Cheese_copy">
		<g id="Shade_copy">
			<g>
				<path class="st4" d="M38.84,61.16c-0.36,4.4,8.9,24.83,8.9,24.83s15.22-6.09,25.06-8.9c8.73-2.49,11.92-19.34,12.53-23.11
					l-4.05-16.64C65.32,45.03,39.09,58.1,38.84,61.16z"/>
				<path class="st5" d="M156.44,48.13l-52.18-18.98c0,0-5.02,2.33-12.01,5.69l4.05,16.64c0.08-0.48,0.11-0.75,0.11-0.75
					s14.29,23.16,29.28,22.45c14.99-0.7,26.23,6.32,26.23,6.32C162.46,61.01,156.44,48.13,156.44,48.13z"/>
			</g>
		</g>
	</g>
	<g id="Lettuce_copy">
		<g id="bottom_copy">
			<path class="st6" d="M30.04,58.25l-2.08,1.81c0,0,4.92-0.7,8.9,4.45l3.98-2.11l0.94,3.75l3.51-1.64l7.03-2.31l-3.28,5.59
				c0,0,4.45-0.7,3.28,3.98l9.77-4.92c0,0,4.28,2.34,5.22,9.13l3.28-1.17v3.04l2.81-2.34l1.64,3.98l4.68-5.86
				c0,0,2.58-1.87,5.51,5.86c0,0,6.67-9.37,9.72,5.86c0,0,7.03-9.37,11.48-2.11c0,0,3.51-3.75,1.64-7.49c0,0,2.58-2.11,6.32,2.58
				c0,0,2.81-12.65,10.54-2.11c0,0,2.81-10.24,8.9-4.42c0,0-5.39-18.53,15.93-6.12c0,0-2.37-24.83,23.87-17.92
				c0,0-2.82-3.4,2.36-4.33l-9.03-6.09l-67.21,36.3L38.01,52.19L30.04,58.25"/>
		</g>
		<path id="top_1_" class="st7" d="M24.43,46.01l-7.49,3.34c0,0,0.93,4.15,3.74,5.56l7.26-1.64l-2.65,3.31c0,0,3.12-1.44,5.46,2.78
			l4.68-2.78v2.78c0,0,3.51,0,3.75,2.58c0,0,8.67-7.73,7.03,3.98c0,0,5.62-4.22,17.33,7.73c0,0,0.34-4.68-1.47-6.79
			c0,0,9.9-2.81,14.12,8.43c0,0,7.96-7.96,7.49,3.75c0,0,10.52-13.35,16.03,4.22c0,0,5.04-18.03,18.63-6.56
			c0,0,0.47-21.78,17.1-8.67c0,0-2.81-14.75,5.15-8.43c0,0-2.58-14.98,15.93-2.92c0,0,0.7-2.93,5.62-3.4c0,0-9.13-4.68,0-11.48
			l13.82-2.81v-3.75L171.28,35L99.73,73.65L24.43,46.01z"/>
	</g>
	<g id="Bread_x5F_Top_copy">
		<path class="st11" d="M96.68,6.23L32.03,30.2c-1.47,0.53-7.36,2.32-5.87,2.8l72.7,23.28c0.39,0.13,0.81,0.1,1.18-0.07l69.58-33.1
			c1.44-0.66-0.87-2.78-2.42-3.1L99.93,5.87C99.64,5.81,96.97,6.13,96.68,6.23z"/>
		<path class="st0" d="M99.73,56.43v16.26c0,0.43,0.46,0.7,0.84,0.5l67.75-36.51c0.92-0.49,1.49-1.44,1.51-2.48
			c0.03-2.17,0.09-6.28,0.15-11.43L99.73,56.43z"/>
		<path class="st9" d="M27.08,47.77l71.49,25.48c0.57,0.2,1.16-0.22,1.16-0.83V56.43L25.89,32.8C25.89,32.8,25.13,38.75,27.08,47.77
			z"/>
	</g>
</g>
<g id="Title">
	<g>
		<path class="st9" d="M44.3,154.64c-0.17,0.11-0.32,0.19-0.46,0.22c-0.14,0.03-0.3,0.01-0.47-0.06c-0.15-0.06-0.29-0.18-0.42-0.35
			c-0.13-0.17-0.28-0.36-0.45-0.57c-0.17-0.21-0.37-0.43-0.61-0.64c-0.24-0.22-0.54-0.4-0.9-0.56c-0.62-0.27-1.14-0.34-1.56-0.21
			c-0.42,0.13-0.72,0.42-0.92,0.87c-0.13,0.29-0.14,0.56-0.04,0.83c0.1,0.27,0.27,0.54,0.51,0.8c0.24,0.27,0.52,0.54,0.85,0.82
			c0.33,0.28,0.67,0.58,1,0.89s0.65,0.65,0.95,1c0.3,0.35,0.53,0.74,0.7,1.17c0.17,0.42,0.25,0.88,0.25,1.38
			c0,0.5-0.13,1.04-0.39,1.64c-0.29,0.66-0.67,1.22-1.15,1.7c-0.48,0.47-1.03,0.83-1.65,1.07c-0.62,0.24-1.3,0.34-2.04,0.31
			c-0.74-0.03-1.52-0.22-2.32-0.58c-0.44-0.19-0.87-0.43-1.29-0.73c-0.42-0.29-0.81-0.61-1.17-0.97c-0.36-0.35-0.68-0.73-0.95-1.12
			c-0.28-0.39-0.5-0.79-0.65-1.19l1.65-1.12c0.12-0.09,0.27-0.14,0.43-0.15c0.16-0.02,0.32,0.01,0.47,0.08
			c0.2,0.09,0.37,0.23,0.51,0.44c0.14,0.21,0.31,0.44,0.5,0.7c0.19,0.26,0.41,0.52,0.69,0.79c0.27,0.27,0.63,0.49,1.07,0.69
			c0.6,0.26,1.12,0.33,1.57,0.21c0.45-0.12,0.8-0.46,1.05-1.04c0.14-0.33,0.17-0.64,0.08-0.93c-0.09-0.29-0.26-0.56-0.49-0.83
			c-0.24-0.27-0.52-0.53-0.85-0.8c-0.33-0.27-0.67-0.55-1.01-0.85c-0.34-0.3-0.66-0.63-0.96-0.98c-0.3-0.35-0.53-0.74-0.69-1.17
			c-0.17-0.43-0.24-0.91-0.23-1.45c0.02-0.53,0.17-1.13,0.46-1.79c0.23-0.53,0.57-1.01,1-1.42c0.44-0.41,0.95-0.73,1.54-0.95
			c0.59-0.22,1.24-0.31,1.95-0.28c0.71,0.03,1.46,0.21,2.24,0.55c0.44,0.19,0.85,0.41,1.23,0.66c0.38,0.25,0.73,0.52,1.05,0.82
			c0.31,0.29,0.59,0.61,0.83,0.93c0.24,0.33,0.44,0.66,0.59,1.01L44.3,154.64z"/>
		<path class="st9" d="M46,169.05c-0.48-0.21-0.88-0.46-1.18-0.76c-0.31-0.3-0.53-0.63-0.67-1c-0.14-0.37-0.2-0.76-0.17-1.18
			c0.03-0.42,0.14-0.86,0.34-1.31l2.28-5.24l-0.86-0.37c-0.16-0.07-0.27-0.18-0.33-0.33c-0.07-0.15-0.06-0.32,0.03-0.52l0.51-1.18
			l1.75,0.39l1.67-2.21c0.21-0.28,0.5-0.34,0.87-0.18l1.58,0.69l-1.29,2.96l2.46,1.07l-0.9,2.07l-2.46-1.07l-2.19,5.03
			c-0.1,0.23-0.13,0.45-0.08,0.66c0.05,0.2,0.18,0.35,0.39,0.44c0.11,0.05,0.21,0.08,0.29,0.09c0.08,0.01,0.16,0.01,0.23,0.01
			c0.07-0.01,0.13-0.01,0.19-0.01c0.06,0,0.12,0.01,0.19,0.04c0.09,0.04,0.15,0.09,0.19,0.16c0.04,0.07,0.07,0.16,0.08,0.27
			l0.29,1.84c-0.52,0.12-1.05,0.15-1.61,0.09C47.06,169.43,46.52,169.28,46,169.05z"/>
		<path class="st9" d="M57.81,174.01c-0.29-0.13-0.49-0.26-0.6-0.4c-0.11-0.14-0.16-0.36-0.15-0.65l0.03-0.65
			c-0.35,0.1-0.67,0.19-0.98,0.25c-0.31,0.06-0.61,0.09-0.91,0.1c-0.3,0-0.6-0.03-0.91-0.09c-0.31-0.07-0.63-0.18-0.98-0.33
			c-0.46-0.2-0.86-0.44-1.18-0.73c-0.33-0.29-0.57-0.6-0.73-0.95c-0.16-0.35-0.24-0.73-0.23-1.14c0.01-0.41,0.11-0.85,0.31-1.3
			c0.16-0.36,0.41-0.69,0.75-0.99c0.35-0.3,0.81-0.51,1.4-0.62c0.59-0.11,1.3-0.11,2.16,0.01c0.85,0.12,1.86,0.44,3.02,0.94
			l0.19-0.43c0.26-0.6,0.33-1.08,0.2-1.46c-0.13-0.37-0.42-0.66-0.87-0.85c-0.36-0.16-0.67-0.24-0.93-0.27
			c-0.26-0.02-0.5-0.02-0.73,0c-0.22,0.02-0.43,0.03-0.64,0.04c-0.2,0-0.42-0.04-0.66-0.15c-0.21-0.09-0.36-0.22-0.47-0.38
			c-0.1-0.16-0.16-0.34-0.18-0.53l-0.13-1.19c0.85-0.27,1.7-0.38,2.56-0.32s1.72,0.28,2.57,0.65c0.61,0.27,1.12,0.61,1.53,1.02
			c0.4,0.41,0.7,0.87,0.89,1.38c0.19,0.5,0.27,1.04,0.24,1.61c-0.03,0.57-0.17,1.14-0.42,1.72l-2.76,6.33L57.81,174.01z
			 M55.13,170.65c0.39,0.17,0.76,0.25,1.12,0.24c0.35-0.01,0.74-0.1,1.18-0.28l0.6-1.39c-0.6-0.26-1.12-0.44-1.55-0.53
			c-0.43-0.09-0.78-0.13-1.06-0.11c-0.28,0.02-0.5,0.08-0.65,0.2c-0.15,0.11-0.27,0.26-0.35,0.44c-0.15,0.35-0.16,0.63-0.04,0.86
			C54.52,170.3,54.77,170.49,55.13,170.65z"/>
		<path class="st9" d="M72.51,171.22c-0.14,0.07-0.27,0.12-0.38,0.15c-0.11,0.03-0.25,0.01-0.4-0.06c-0.15-0.06-0.27-0.16-0.36-0.28
			c-0.09-0.12-0.19-0.26-0.3-0.42c-0.11-0.15-0.25-0.31-0.42-0.47s-0.41-0.3-0.71-0.43c-0.37-0.16-0.72-0.23-1.05-0.21
			c-0.33,0.02-0.64,0.12-0.92,0.29c-0.29,0.18-0.55,0.43-0.8,0.76c-0.24,0.33-0.47,0.73-0.67,1.19c-0.42,0.97-0.56,1.8-0.41,2.48
			c0.15,0.68,0.55,1.17,1.21,1.46c0.35,0.15,0.65,0.23,0.89,0.23c0.24,0,0.46-0.02,0.65-0.07c0.19-0.04,0.36-0.09,0.53-0.13
			c0.16-0.04,0.33-0.02,0.51,0.06c0.24,0.1,0.38,0.27,0.43,0.5l0.41,1.47c-0.47,0.22-0.92,0.37-1.37,0.44
			c-0.44,0.07-0.87,0.1-1.29,0.07c-0.42-0.03-0.82-0.1-1.2-0.21c-0.39-0.11-0.75-0.24-1.1-0.39c-0.62-0.27-1.16-0.64-1.62-1.12
			c-0.46-0.48-0.81-1.04-1.04-1.67c-0.23-0.63-0.33-1.33-0.3-2.09c0.03-0.76,0.23-1.56,0.59-2.39c0.32-0.73,0.72-1.37,1.22-1.9
			c0.5-0.54,1.06-0.95,1.69-1.23c0.63-0.28,1.32-0.42,2.06-0.41c0.75,0.01,1.53,0.19,2.36,0.55c0.79,0.35,1.44,0.78,1.92,1.29
			c0.49,0.51,0.87,1.12,1.14,1.82L72.51,171.22z"/>
		<path class="st9" d="M81.22,166.8l-3.57,8.2l0.45,0.2c0.19,0.08,0.35,0.12,0.47,0.11c0.12-0.01,0.26-0.06,0.41-0.16l3.16-2.02
			c0.19-0.12,0.37-0.19,0.56-0.2c0.19-0.01,0.4,0.04,0.63,0.14l2.77,1.21l-4.19,2.47c-0.2,0.12-0.4,0.21-0.6,0.27
			c-0.2,0.07-0.41,0.12-0.63,0.15c0.2,0.35,0.32,0.75,0.38,1.21l0.74,6.09l-2.74-1.19c-0.23-0.1-0.41-0.22-0.54-0.37
			c-0.13-0.15-0.21-0.34-0.23-0.57l-0.36-4.42c-0.02-0.2-0.07-0.35-0.14-0.44c-0.08-0.09-0.21-0.18-0.41-0.26l-0.59-0.26l-1.95,4.48
			l-3.03-1.32l6.37-14.63L81.22,166.8z"/>
	</g>
	<g>
		<path class="st11" d="M114.45,178.37l2.76,5.04l-3.16,1.73l-7.47-13.61l4.43-2.43c0.98-0.54,1.88-0.9,2.68-1.08
			c0.81-0.18,1.53-0.21,2.16-0.09c0.64,0.12,1.19,0.37,1.66,0.75c0.47,0.38,0.86,0.86,1.18,1.44c0.24,0.44,0.41,0.89,0.51,1.35
			c0.1,0.46,0.12,0.92,0.07,1.38c-0.05,0.46-0.17,0.92-0.37,1.36c-0.2,0.45-0.47,0.88-0.82,1.29c0.27-0.01,0.54,0.01,0.81,0.07
			c0.27,0.05,0.53,0.16,0.79,0.31l5.49,3.15l-2.86,1.57c-0.53,0.29-1.02,0.3-1.47,0.03l-4.43-2.71c-0.2-0.12-0.38-0.18-0.56-0.18
			c-0.18,0-0.38,0.06-0.63,0.2L114.45,178.37z M113.25,176.19l1.27-0.7c0.43-0.24,0.77-0.49,1.01-0.77
			c0.24-0.27,0.41-0.56,0.49-0.86c0.09-0.3,0.1-0.6,0.05-0.91c-0.06-0.31-0.16-0.61-0.33-0.91c-0.33-0.6-0.78-0.96-1.35-1.08
			c-0.57-0.12-1.27,0.04-2.08,0.49l-1.27,0.7L113.25,176.19z"/>
		<path class="st11" d="M124.76,166.47c0.64-0.35,1.28-0.58,1.93-0.67c0.64-0.09,1.26-0.05,1.85,0.12c0.59,0.17,1.15,0.47,1.66,0.9
			c0.52,0.43,0.97,1,1.35,1.7c0.12,0.22,0.21,0.4,0.26,0.55c0.06,0.15,0.08,0.27,0.08,0.38c-0.01,0.11-0.04,0.2-0.11,0.28
			c-0.07,0.08-0.17,0.15-0.3,0.22l-5.59,3.06c0.54,0.76,1.1,1.21,1.7,1.36c0.6,0.15,1.21,0.05,1.84-0.3c0.34-0.18,0.6-0.38,0.8-0.6
			c0.2-0.21,0.37-0.42,0.5-0.63c0.14-0.2,0.26-0.39,0.37-0.56c0.11-0.17,0.26-0.3,0.43-0.4c0.23-0.13,0.45-0.14,0.66-0.04l1.41,0.58
			c-0.11,0.51-0.28,0.96-0.51,1.37s-0.49,0.77-0.79,1.09c-0.3,0.32-0.62,0.6-0.95,0.85c-0.34,0.25-0.67,0.46-1,0.64
			c-0.68,0.37-1.38,0.61-2.09,0.71c-0.72,0.11-1.42,0.06-2.1-0.13c-0.69-0.19-1.33-0.54-1.95-1.05c-0.61-0.51-1.16-1.19-1.63-2.05
			c-0.36-0.65-0.58-1.32-0.68-2.02c-0.1-0.7-0.06-1.38,0.12-2.05c0.17-0.66,0.49-1.28,0.94-1.86S124.02,166.87,124.76,166.47z
			 M125.92,168.44c-0.55,0.3-0.9,0.7-1.04,1.18c-0.14,0.49-0.1,1.05,0.13,1.7l3.62-1.98c-0.13-0.23-0.28-0.44-0.46-0.63
			c-0.18-0.19-0.38-0.33-0.61-0.43c-0.23-0.1-0.48-0.14-0.76-0.13C126.52,168.17,126.23,168.27,125.92,168.44z"/>
		<path class="st11" d="M138.64,162.04c-0.03,0.15-0.07,0.28-0.11,0.39c-0.05,0.11-0.15,0.2-0.29,0.28
			c-0.14,0.08-0.29,0.12-0.44,0.11c-0.15,0-0.32-0.01-0.51-0.02c-0.19-0.01-0.4,0.01-0.63,0.05c-0.23,0.04-0.49,0.13-0.78,0.29
			c-0.35,0.19-0.63,0.43-0.81,0.7c-0.19,0.27-0.3,0.58-0.33,0.91c-0.04,0.33,0,0.7,0.12,1.1c0.11,0.4,0.29,0.81,0.53,1.26
			c0.51,0.93,1.08,1.54,1.71,1.85c0.63,0.3,1.26,0.28,1.89-0.07c0.34-0.18,0.58-0.37,0.73-0.56c0.15-0.19,0.27-0.38,0.35-0.55
			c0.08-0.18,0.16-0.34,0.22-0.49c0.07-0.15,0.19-0.27,0.36-0.37c0.23-0.13,0.45-0.14,0.66-0.04l1.41,0.58
			c-0.11,0.51-0.27,0.96-0.48,1.35c-0.21,0.4-0.46,0.75-0.74,1.06c-0.28,0.31-0.58,0.58-0.9,0.82c-0.32,0.24-0.65,0.45-0.98,0.63
			c-0.59,0.32-1.22,0.52-1.88,0.59c-0.66,0.07-1.31,0.01-1.96-0.2c-0.64-0.2-1.25-0.55-1.83-1.04c-0.58-0.49-1.09-1.14-1.53-1.93
			c-0.38-0.7-0.64-1.41-0.76-2.13c-0.13-0.72-0.11-1.42,0.06-2.09s0.48-1.3,0.94-1.88c0.46-0.59,1.09-1.09,1.88-1.53
			c0.76-0.42,1.49-0.66,2.2-0.73c0.71-0.07,1.42,0,2.13,0.21L138.64,162.04z"/>
		<path class="st11" d="M143.07,156.42c0.64-0.35,1.28-0.58,1.93-0.67c0.64-0.09,1.26-0.06,1.85,0.12c0.59,0.17,1.15,0.47,1.66,0.9
			c0.52,0.43,0.97,1,1.35,1.7c0.12,0.22,0.21,0.4,0.26,0.55c0.06,0.15,0.08,0.27,0.08,0.38c-0.01,0.11-0.04,0.2-0.11,0.28
			c-0.07,0.08-0.17,0.15-0.3,0.22l-5.59,3.06c0.54,0.76,1.1,1.21,1.7,1.36c0.6,0.15,1.21,0.05,1.84-0.3c0.34-0.18,0.6-0.38,0.8-0.6
			c0.2-0.21,0.37-0.42,0.5-0.63c0.14-0.21,0.26-0.39,0.37-0.56c0.12-0.17,0.26-0.3,0.43-0.4c0.23-0.13,0.45-0.14,0.66-0.04
			l1.41,0.58c-0.11,0.51-0.28,0.96-0.51,1.37c-0.23,0.4-0.49,0.77-0.79,1.09c-0.3,0.32-0.62,0.6-0.96,0.85
			c-0.34,0.25-0.67,0.46-1,0.64c-0.68,0.37-1.38,0.61-2.09,0.71c-0.72,0.11-1.42,0.06-2.1-0.13c-0.68-0.19-1.33-0.54-1.95-1.05
			c-0.61-0.51-1.16-1.19-1.63-2.05c-0.36-0.65-0.58-1.32-0.68-2.02c-0.1-0.7-0.06-1.38,0.12-2.05c0.17-0.66,0.49-1.28,0.94-1.86
			C141.74,157.32,142.33,156.83,143.07,156.42z M144.23,158.39c-0.55,0.3-0.9,0.7-1.04,1.18s-0.1,1.05,0.13,1.7l3.62-1.98
			c-0.13-0.23-0.28-0.44-0.46-0.63c-0.18-0.19-0.38-0.33-0.61-0.43c-0.23-0.1-0.48-0.14-0.76-0.13
			C144.83,158.13,144.54,158.22,144.23,158.39z"/>
		<path class="st11" d="M157.5,161.5c-0.46,0.25-0.9,0.41-1.33,0.47c-0.43,0.06-0.83,0.03-1.2-0.08c-0.37-0.11-0.72-0.31-1.04-0.59
			c-0.32-0.28-0.59-0.64-0.83-1.07l-2.75-5.01l-0.82,0.45c-0.15,0.08-0.3,0.1-0.46,0.06c-0.16-0.04-0.29-0.15-0.39-0.34l-0.62-1.13
			l1.38-1.14l-0.73-2.68c-0.09-0.34,0.04-0.61,0.39-0.8l1.51-0.83l1.55,2.83l2.35-1.29l1.09,1.98l-2.35,1.29l2.64,4.81
			c0.12,0.22,0.28,0.38,0.47,0.47c0.19,0.09,0.39,0.07,0.59-0.04c0.11-0.06,0.19-0.12,0.25-0.18c0.06-0.06,0.11-0.12,0.15-0.18
			c0.04-0.06,0.07-0.11,0.11-0.16c0.03-0.05,0.08-0.09,0.15-0.12c0.09-0.05,0.17-0.07,0.24-0.05c0.07,0.01,0.17,0.05,0.27,0.1
			l1.63,0.89c-0.22,0.48-0.53,0.92-0.92,1.32C158.45,160.9,158,161.23,157.5,161.5z"/>
		<path class="st11" d="M164.51,157.66c-0.46,0.25-0.9,0.41-1.33,0.47c-0.43,0.06-0.83,0.03-1.2-0.08
			c-0.37-0.11-0.72-0.31-1.04-0.59c-0.32-0.28-0.59-0.64-0.83-1.07l-2.75-5.01l-0.82,0.45c-0.15,0.08-0.3,0.1-0.46,0.06
			c-0.16-0.04-0.29-0.15-0.39-0.34l-0.62-1.13l1.38-1.14l-0.73-2.68c-0.09-0.34,0.04-0.61,0.39-0.8l1.51-0.83l1.55,2.83l2.35-1.29
			l1.09,1.98l-2.35,1.29l2.64,4.81c0.12,0.22,0.28,0.38,0.47,0.47c0.19,0.09,0.39,0.07,0.59-0.04c0.11-0.06,0.19-0.12,0.25-0.18
			c0.06-0.06,0.11-0.12,0.15-0.18c0.04-0.06,0.07-0.11,0.11-0.16c0.03-0.05,0.08-0.09,0.15-0.12c0.09-0.05,0.17-0.07,0.24-0.05
			c0.07,0.01,0.17,0.05,0.27,0.1l1.63,0.89c-0.22,0.48-0.53,0.92-0.92,1.32C165.45,157.05,165.01,157.39,164.51,157.66z"/>
		<path class="st11" d="M166.79,143.42c0.64-0.35,1.28-0.58,1.93-0.67c0.64-0.09,1.26-0.06,1.85,0.12c0.59,0.17,1.15,0.47,1.66,0.9
			c0.52,0.43,0.97,1,1.35,1.7c0.12,0.22,0.21,0.4,0.26,0.55c0.06,0.15,0.08,0.27,0.08,0.38c-0.01,0.11-0.04,0.2-0.11,0.28
			c-0.07,0.08-0.17,0.15-0.3,0.22l-5.59,3.06c0.54,0.76,1.11,1.21,1.7,1.36c0.6,0.15,1.21,0.05,1.84-0.3c0.34-0.18,0.6-0.38,0.8-0.6
			c0.2-0.21,0.37-0.42,0.5-0.63c0.14-0.21,0.26-0.39,0.37-0.56c0.12-0.17,0.26-0.3,0.43-0.4c0.23-0.13,0.45-0.14,0.66-0.03
			l1.41,0.58c-0.11,0.51-0.28,0.96-0.51,1.37c-0.23,0.4-0.49,0.77-0.79,1.09c-0.3,0.32-0.62,0.6-0.95,0.85
			c-0.34,0.25-0.67,0.46-1,0.64c-0.68,0.37-1.38,0.61-2.09,0.71c-0.72,0.11-1.42,0.06-2.1-0.13c-0.68-0.19-1.33-0.54-1.95-1.05
			c-0.61-0.51-1.16-1.19-1.63-2.05c-0.36-0.65-0.58-1.32-0.68-2.02c-0.1-0.7-0.06-1.38,0.12-2.05c0.18-0.66,0.49-1.28,0.94-1.86
			C165.45,144.32,166.05,143.83,166.79,143.42z M167.94,145.39c-0.55,0.3-0.9,0.7-1.04,1.18c-0.14,0.49-0.1,1.05,0.13,1.7l3.62-1.98
			c-0.13-0.23-0.28-0.44-0.46-0.63c-0.18-0.19-0.38-0.33-0.61-0.43c-0.23-0.1-0.48-0.14-0.76-0.13
			C168.55,145.13,168.25,145.22,167.94,145.39z"/>
	</g>
</g>
</svg>
